<svg width="27" height="35" viewBox="0 0 27 35" fill="none" xmlns="http://www.w3.org/2000/svg">
<path d="M22.4146 4.57161V22.4288L22.9146 23.6192H23.4146M22.4146 4.57161L22.4146 2.50018C22.4146 2.00018 21.4146 1.00018 20.4146 1.00018H3.41461C2.41461 1.00018 1.41461 1.50018 1.41461 2.50018L1.41462 24.0002C1.41462 24.0002 1.41676 25.0024 1.91459 25.5002C2.41461 26.0002 3.41462 26.0002 3.41462 26.0002H23.4826C23.4826 26.0002 24.4146 26.0002 24.9146 25.5002C25.4146 25.0002 25.4146 24.3035 25.4146 24.3035V5.00018C25.3361 4.63755 24.6763 4.57161 24.4693 4.57161H22.4146ZM4.91461 5.16685H18.9146M13.4146 8.14304H18.9146M13.4146 11.7145H18.9146M13.4146 15.2859H18.9146M13.4146 21.8335H18.9146M13.4146 18.2621H18.9146M4.91461 18.2621H10.4146M4.91461 21.8335H10.4146M13 33.9998H14.5M4.91461 8.73828H10.4146V15.2859H4.91461V8.73828Z" stroke="white" stroke-width="2" stroke-linecap="round" stroke-linejoin="round"/>
</svg>
