<svg width="29" height="29" viewBox="0 0 29 29" fill="none" xmlns="http://www.w3.org/2000/svg">
<path d="M27.4146 14.5V20.75C27.4146 24.5 24.9146 27 21.1646 27H8.66461C4.91461 27 2.41461 24.5 2.41461 20.75V14.5C2.41461 11.1 4.46461 8.72503 7.65211 8.32503C7.97711 8.27503 8.31461 8.25003 8.66461 8.25003H21.1646C21.4896 8.25003 21.8021 8.26252 22.1021 8.31252C25.3271 8.68752 27.4146 11.075 27.4146 14.5Z" stroke="white" stroke-width="3" stroke-linecap="round" stroke-linejoin="round"/>
<path d="M22.1039 8.3125C21.8039 8.2625 21.4914 8.25001 21.1664 8.25001H8.66637C8.31637 8.25001 7.97887 8.27501 7.65387 8.32501C7.82887 7.97501 8.07887 7.65001 8.37887 7.35001L12.4414 3.275C14.1539 1.575 16.9289 1.575 18.6414 3.275L20.8289 5.48752C21.6289 6.27502 22.0539 7.275 22.1039 8.3125Z" stroke="white" stroke-width="3" stroke-linecap="round" stroke-linejoin="round"/>
<path d="M27.4146 15.125H23.6646C22.2896 15.125 21.1646 16.25 21.1646 17.625C21.1646 19 22.2896 20.125 23.6646 20.125H27.4146" stroke="white" stroke-width="3" stroke-linecap="round" stroke-linejoin="round"/>
</svg>
