<svg width="26" height="26" viewBox="0 0 26 26" fill="none" xmlns="http://www.w3.org/2000/svg">
<path d="M11.9167 2.16667H9.75008C4.33341 2.16667 2.16675 4.33334 2.16675 9.75V16.25C2.16675 21.6667 4.33341 23.8333 9.75008 23.8333H16.2501C21.6667 23.8333 23.8334 21.6667 23.8334 16.25V14.0833" stroke="white" stroke-width="1.5" stroke-linecap="round" stroke-linejoin="round"/>
<path d="M17.3768 3.27167L8.84011 11.8083C8.51511 12.1333 8.19011 12.7725 8.12511 13.2383L7.65928 16.4992C7.48595 17.68 8.32011 18.5033 9.50095 18.3408L12.7618 17.875C13.2168 17.81 13.8559 17.485 14.1918 17.16L22.7284 8.62333C24.2018 7.15 24.8951 5.43833 22.7284 3.27167C20.5618 1.105 18.8501 1.79833 17.3768 3.27167Z" stroke="white" stroke-width="1.5" stroke-miterlimit="10" stroke-linecap="round" stroke-linejoin="round"/>
<path d="M16.1526 4.49583C16.8784 7.085 18.9043 9.11083 21.5043 9.8475" stroke="white" stroke-width="1.5" stroke-miterlimit="10" stroke-linecap="round" stroke-linejoin="round"/>
</svg>
