<svg width="28" height="28" viewBox="0 0 28 28" fill="none" xmlns="http://www.w3.org/2000/svg">
<path d="M2.03776 11.5755L11.6328 18.5232C12.4881 19.1401 12.9159 19.4485 13.3781 19.5684C13.7865 19.6743 14.2124 19.6743 14.6209 19.5684C15.0832 19.4485 15.5109 19.1401 16.3663 18.5232L25.9613 11.5755M11.7308 3.01996L3.99752 8.27407C3.26828 8.76951 2.90367 9.01723 2.6392 9.35211C2.40513 9.64851 2.22901 9.99316 2.12148 10.3652C2 10.7856 2 11.2514 2 12.183V21.3841C2 22.9998 2 23.8078 2.29065 24.4248C2.54631 24.9676 2.95425 25.409 3.45603 25.6855C4.02645 26 4.77319 26 6.26667 26H21.7333C23.2268 26 23.9736 26 24.544 25.6855C25.0457 25.409 25.4537 24.9676 25.7093 24.4248C26 23.8078 26 22.9998 26 21.3841V12.183C26 11.2514 26 10.7856 25.8785 10.3652C25.7709 9.99316 25.5949 9.64851 25.3608 9.35211C25.0964 9.01723 24.7317 8.76951 24.0025 8.27407L16.2692 3.01996C15.4461 2.46082 15.0347 2.18126 14.5932 2.07228C14.2027 1.97591 13.7973 1.97591 13.4068 2.07228C12.9653 2.18126 12.5539 2.46082 11.7308 3.01996Z" stroke="black" stroke-width="2.88491" stroke-linecap="round" stroke-linejoin="round"/>
</svg>
