<svg width="79" height="19" viewBox="0 0 79 19" fill="none" xmlns="http://www.w3.org/2000/svg">
<path d="M21.109 0.171726C20.716 0.321289 20.3008 0.709044 20.1125 1.0968L19.9575 1.41254V9.50001V17.5875L20.0848 17.8423C20.2897 18.2577 20.5665 18.5347 20.9706 18.7341C21.3028 18.9003 21.3858 18.9169 21.8121 18.9169C22.3657 18.9114 22.6702 18.8006 23.0411 18.4571C23.3124 18.2079 23.484 17.8921 23.5892 17.4767C23.6279 17.3216 23.6667 17.1942 23.6722 17.1831C23.6778 17.172 23.8272 17.305 24.0044 17.4767C25.4659 18.8726 27.8686 19.3102 30.1605 18.6012C31.3563 18.2356 32.5632 17.3659 33.377 16.2857C34.8385 14.3414 35.2537 11.4111 34.4289 8.83528C34.0967 7.79942 33.5154 6.84111 32.7459 6.0656C31.4726 4.78047 29.9169 4.14899 28.0125 4.14899C26.3628 4.14899 25.0397 4.61983 24.0432 5.55598L23.7497 5.83295V3.86648C23.7497 2.76415 23.7276 1.76706 23.6944 1.60088C23.5781 0.986012 23.2017 0.48193 22.6702 0.216042C22.2827 0.0277023 21.5242 0.00554466 21.109 0.171726ZM28.0956 7.67202C29.1031 7.88251 30.0443 8.61371 30.4982 9.5277C30.8636 10.2755 30.9633 10.7851 30.93 11.6881C30.8858 12.8956 30.5757 13.6656 29.8394 14.4023C29.1253 15.1169 28.3613 15.4216 27.2928 15.4216C26.2022 15.4271 25.4936 15.1502 24.7961 14.4577C24.3366 13.998 24.0653 13.5437 23.8494 12.8513C23.7387 12.4857 23.7221 12.3251 23.7221 11.5496C23.7221 10.5359 23.8162 10.0872 24.1816 9.38922C24.4251 8.92391 25.0286 8.29243 25.4659 8.04869C25.7538 7.88251 26.3296 7.67756 26.6285 7.6277C26.9551 7.57231 27.7357 7.59447 28.0956 7.67202Z" fill="#F5F5F5"/>
<path d="M67.1306 0.160658C66.9811 0.22159 66.7652 0.337917 66.6489 0.421007C66.361 0.620424 66.0123 1.14666 65.9403 1.49564C65.896 1.68952 65.8794 4.16007 65.8794 9.52217C65.8794 17.2385 65.8794 17.2717 65.9957 17.6484C66.0953 17.9642 66.1673 18.0749 66.4551 18.3685C66.7541 18.6677 66.8537 18.7286 67.2025 18.8394C68.1879 19.133 69.1235 18.723 69.5443 17.8035L69.6716 17.5321L69.6882 9.61634C69.6993 2.54258 69.6938 1.66182 69.6163 1.39594C69.4557 0.847538 69.0959 0.426546 68.5976 0.204973C68.2267 0.0387917 67.4904 0.016634 67.1306 0.160658Z" fill="#F5F5F5"/>
<path d="M41.9912 4.16008C40.1642 4.28194 38.5145 4.94667 37.4903 5.98807C37.064 6.4146 36.8537 6.82451 36.826 7.28981C36.7762 8.08748 37.2301 8.69127 38.0384 8.89623C38.6141 9.04579 38.9851 8.92947 39.6937 8.39769C40.1919 8.02101 40.8618 7.67757 41.3545 7.55017C41.8472 7.42276 42.816 7.42276 43.2645 7.5557C43.7682 7.70527 44.0727 7.88253 44.3606 8.19273C44.8146 8.67466 45.0083 9.27291 45.0083 10.1703V10.5691L42.7551 10.5968C40.3193 10.6245 39.9207 10.6633 39.0183 10.9458C37.1305 11.544 36.0952 12.879 36.0952 14.7015C36.0952 15.0117 36.134 15.4216 36.1727 15.621C36.5215 17.2496 37.7893 18.4239 39.6383 18.8117C40.1975 18.9335 41.6258 18.9502 42.1849 18.8449C43.1593 18.6566 44.0949 18.2467 44.7979 17.6927C45.0803 17.4712 45.1246 17.4545 45.1523 17.5432C45.3516 18.1082 45.6727 18.4959 46.1432 18.7286C46.3813 18.8449 46.4975 18.8615 46.9736 18.8615C47.4497 18.8615 47.566 18.8449 47.7985 18.7286C48.1639 18.5458 48.4739 18.2245 48.6566 17.8423L48.8005 17.5321L48.8171 13.7099C48.8282 11.2172 48.8116 9.68282 48.7729 9.29506C48.5403 7.00731 47.4331 5.39536 45.5619 4.63092C45.0249 4.40935 44.1613 4.21547 43.5689 4.18224C43.2811 4.16562 42.9434 4.14346 42.8216 4.13238C42.6998 4.12684 42.3289 4.13792 41.9912 4.16008ZM44.9806 13.4994C44.8976 14.2805 44.6374 14.8289 44.1004 15.333C43.5523 15.8537 42.8326 16.1196 41.9579 16.1196C40.8729 16.1196 40.12 15.6432 39.9705 14.8566C39.8598 14.2694 40.0867 13.7044 40.5407 13.4385C41.0057 13.1615 41.2382 13.1338 43.2036 13.1338L45.0194 13.1283L44.9806 13.4994Z" fill="#F5F5F5"/>
<path d="M52.4102 4.15453C51.8345 4.25424 51.303 4.64753 51.0428 5.17931C50.9044 5.45074 50.9044 5.47844 50.8767 7.28427C50.8158 11.112 50.8158 16.8784 50.8767 17.2551C50.9874 17.9586 51.3252 18.4405 51.8898 18.723C53.0579 19.2991 54.3645 18.6677 54.6357 17.4047C54.6745 17.2053 54.6966 15.9644 54.6966 13.4994C54.6966 9.51663 54.6911 9.55541 55.0454 8.90176C55.5437 7.95453 56.6896 7.41167 57.8024 7.58339C58.8819 7.75511 59.585 8.35336 59.9338 9.41692C60.0279 9.69389 60.039 10.0539 60.0666 13.6268L60.0943 17.5321L60.2383 17.8423C60.9081 19.2659 62.962 19.3047 63.6485 17.9032L63.8035 17.5875L63.8201 13.3776C63.8312 10.4971 63.8201 9.02917 63.7758 8.73558C63.6817 8.09302 63.5156 7.50584 63.2776 6.99622C63.0063 6.42013 62.7904 6.10439 62.342 5.628C61.5005 4.75278 60.4486 4.2764 59.0978 4.16007C57.5754 4.02713 56.053 4.43704 54.9402 5.27902L54.5416 5.57815L54.4807 5.37873C54.3921 5.08514 54.0821 4.66969 53.7887 4.4592C53.4123 4.19331 52.8863 4.07698 52.4102 4.15453Z" fill="#F5F5F5"/>
<path d="M76.5751 4.15452C76.0381 4.26531 75.883 4.40933 73.342 7.05715C71.9967 8.46414 70.8064 9.75481 70.6902 9.93207C70.2307 10.6356 70.2694 11.2504 70.8286 12.0481C71.2881 12.7073 75.9661 18.4239 76.1875 18.6012C76.647 18.9668 77.4055 19.0388 77.9757 18.7729C78.3466 18.5956 78.6954 18.2245 78.8338 17.8478C78.9943 17.4379 78.9722 16.7676 78.7895 16.4131C78.7231 16.2857 77.7376 15.0172 76.6027 13.5881C75.4678 12.1644 74.5212 10.9624 74.4935 10.9236C74.4658 10.8793 75.0858 10.2146 76.3979 8.87406C78.5514 6.68047 78.6234 6.59184 78.6566 5.92158C78.6898 5.37318 78.5625 5.03528 78.175 4.64753C77.9535 4.43149 77.7819 4.30962 77.5882 4.24869C77.2172 4.13237 76.8629 4.09913 76.5751 4.15452Z" fill="#F5F5F5"/>
<path d="M14.1613 4.23763C13.7627 4.38719 13.4693 4.65308 11.3711 6.76912C9.02931 9.12889 9.02378 9.12889 8.97949 9.86008C8.96288 10.198 8.97949 10.3365 9.07914 10.6024C9.23415 11.0012 9.60507 11.4166 9.99259 11.6216C10.2362 11.7545 10.3358 11.7712 10.7953 11.7712C11.4984 11.7712 11.7088 11.6715 12.3731 11.0233C12.6499 10.7464 12.8935 10.5248 12.9156 10.5248C12.9323 10.5248 12.9599 12.1257 12.9655 14.0811L12.9821 17.6429L13.1094 17.8811C13.3087 18.2522 13.6519 18.5956 14.0007 18.7618C14.2609 18.8892 14.3827 18.9114 14.7813 18.9169C15.1854 18.9169 15.2962 18.8948 15.5674 18.7618C15.9716 18.5624 16.3978 18.1026 16.5363 17.7149C16.6304 17.4379 16.6359 17.1 16.6359 11.4942V5.56708L16.492 5.25687C16.2982 4.8525 16.0214 4.54784 15.656 4.34842C15.4014 4.20994 15.2906 4.18224 14.8644 4.17116C14.5322 4.16008 14.2997 4.18224 14.1613 4.23763Z" fill="#F5F5F5"/>
<path d="M2.47472 4.06924C2.87332 4.2188 3.16673 4.48469 5.26491 6.60072C7.60667 8.96049 7.61221 8.96049 7.6565 9.69168C7.67311 10.0296 7.6565 10.1681 7.55685 10.434C7.40184 10.8328 7.03092 11.2482 6.64339 11.4532C6.39981 11.5861 6.30016 11.6028 5.84066 11.6028C5.13758 11.6028 4.92721 11.5031 4.26288 10.8549C3.98607 10.578 3.74248 10.3564 3.72034 10.3564C3.70373 10.3564 3.67605 11.9573 3.67051 13.9127L3.65391 17.4745L3.52658 17.7127C3.32728 18.0838 2.98404 18.4273 2.63526 18.5934C2.37507 18.7208 2.25327 18.743 1.85468 18.7485C1.45054 18.7485 1.33982 18.7264 1.06855 18.5934C0.664416 18.394 0.238138 17.9342 0.0997353 17.5465C0.00562191 17.2695 8.58307e-05 16.9316 8.58307e-05 11.3258V5.39868L0.144024 5.08848C0.337787 4.6841 0.614592 4.37944 0.979973 4.18002C1.23463 4.04154 1.34536 4.01384 1.77163 4.00276C2.1038 3.99169 2.33632 4.01384 2.47472 4.06924Z" fill="#F5F5F5"/>
</svg>
