<svg width="25" height="25" viewBox="0 0 25 25" fill="none" xmlns="http://www.w3.org/2000/svg">
<path d="M6.14922 1.47186C7.62657 0.99217 11.8164 2.69256 12.3531 3.30428C12.8863 3.91287 9.40547 4.16444 7.51563 4.44451C5.56563 4.73787 3.62071 5.08826 3.08907 4.47459C2.55782 3.86951 4.67383 1.95467 6.14922 1.47186Z" fill="#F79423"/>
<path d="M16.3172 0.405506C18.0055 -0.0874626 22.5328 1.93988 23.0797 2.63051C23.6211 3.32973 19.7281 3.50394 17.6031 3.76058C15.4035 4.02387 13.2004 4.35433 12.6586 3.65824C12.1133 2.96762 14.6348 0.893397 16.3184 0.405506" fill="#F79423"/>
<path d="M6.40783 3.2059C7.42228 2.53871 11.7883 3.22113 12.5242 3.64027C13.2672 4.0559 10.452 4.89769 8.98908 5.47269C7.48478 6.06762 6.01095 6.71996 5.26994 6.29418C4.52423 5.88012 5.39767 3.87973 6.40861 3.2059" fill="#F79423"/>
<path d="M10.5008 0.0349948C11.9777 0.167417 13.532 2.75101 13.3879 3.36312C13.2488 3.97171 10.5176 3.03109 8.90938 2.62054C7.25313 2.19945 5.54453 1.82718 5.69219 1.21859C5.83477 0.603354 9.02032 -0.0958646 10.5008 0.0349948Z" fill="#F79423"/>
<path d="M15.5594 2.92385C17.0418 3.0512 18.5945 5.63674 18.45 6.2469C18.3059 6.85901 15.5762 5.91643 13.968 5.50745C12.3164 5.08831 10.6027 4.71096 10.7504 4.10081C10.8902 3.49065 14.0824 2.79495 15.5594 2.92502" fill="#F79423"/>
<path d="M1.84064 20.1702C1.84064 23.8542 7.10548 24.9272 12.7375 24.9272C18.3692 24.9272 23.6359 23.8542 23.6359 20.1702C23.6359 16.4933 18.3695 5.50928 12.7375 5.50928C7.10548 5.50928 1.84064 16.4937 1.84064 20.1702Z" fill="#F79423"/>
<path d="M16.1176 5.9623C16.1177 6.14552 16.0817 6.32695 16.0116 6.49624C15.9415 6.66553 15.8388 6.81934 15.7092 6.94889C15.5797 7.07844 15.4259 7.18119 15.2566 7.25125C15.0873 7.32132 14.9059 7.35733 14.7227 7.35723H10.7519C10.382 7.35723 10.0272 7.21026 9.76559 6.94866C9.50399 6.68706 9.35703 6.33226 9.35703 5.9623C9.35703 5.59235 9.50399 5.23754 9.76559 4.97595C10.0272 4.71435 10.382 4.56738 10.7519 4.56738H14.7223C14.9055 4.56733 15.0869 4.60337 15.2562 4.67345C15.4255 4.74353 15.5793 4.84627 15.7089 4.97581C15.8384 5.10534 15.9412 5.25914 16.0114 5.4284C16.0815 5.59767 16.1176 5.77909 16.1176 5.9623Z" fill="#845939"/>
<path d="M15.3078 16.0023C14.8754 15.541 14.2785 15.2324 13.7117 14.9762C13.1215 14.7074 12.2664 14.4883 11.8906 13.9098C11.5754 13.4254 12.0098 12.9172 12.4524 12.7695C13.1649 12.5301 14.0438 12.8184 14.6691 13.1703C14.9809 13.3445 15.3098 13.1738 15.4285 12.8617C15.5594 12.5164 15.6902 12.1707 15.8191 11.8258C15.8981 11.616 15.7707 11.3477 15.5832 11.2422C15.0149 10.927 14.4227 10.7543 13.7973 10.6723V9.61602C13.7973 9.33438 13.5625 9.09961 13.2809 9.09961H12.3066C12.0266 9.09961 11.7902 9.33438 11.7902 9.61602V10.7957C10.8262 11.0738 9.94766 11.6945 9.60548 12.6805C9.22501 13.7719 9.45626 14.902 10.266 15.7285C10.7004 16.173 11.2871 16.4648 11.8441 16.7176C12.4727 17.0012 13.2457 17.2055 13.6516 17.8109C14.0859 18.4582 13.5242 19.0969 12.9172 19.2801C12.1024 19.5246 11.1149 19.1578 10.4305 18.7316C10.1305 18.5441 9.78165 18.7367 9.67266 19.0402L9.29532 20.0914C9.21485 20.316 9.34884 20.5543 9.53321 20.6746C10.1789 21.0973 10.9199 21.3066 11.6793 21.3941V22.5059C11.6793 22.657 11.7348 22.7727 11.8168 22.8547C11.8219 22.8602 11.827 22.8648 11.8301 22.8699C11.8348 22.8748 11.8399 22.8792 11.8453 22.8832C11.9274 22.9672 12.043 23.0223 12.1941 23.0223H13.1852C13.3216 23.021 13.4521 22.9662 13.5484 22.8696C13.6447 22.7729 13.6992 22.6423 13.7 22.5059V21.2785C14.7715 20.9699 15.5996 20.2777 16.0172 19.2027C16.4453 18.1062 16.0813 16.8301 15.3051 16.002" fill="#25333A"/>
<path d="M15.3078 15.289C14.8754 14.8296 14.2785 14.521 13.7117 14.2647C13.1215 13.996 12.2664 13.7769 11.8906 13.1968C11.5754 12.7155 12.0098 12.2058 12.4524 12.0565C13.1649 11.8187 14.0438 12.1054 14.6691 12.4573C14.9809 12.6335 15.3098 12.4604 15.4285 12.1487C15.5594 11.8034 15.6902 11.4597 15.8191 11.1144C15.8981 10.903 15.7707 10.6347 15.5832 10.5308C15.0149 10.214 14.4227 10.0429 13.7973 9.95928V8.90303C13.7973 8.62295 13.5625 8.38818 13.2809 8.38818H12.3066C12.0266 8.38818 11.7902 8.62295 11.7902 8.90303V10.0827C10.8262 10.3612 9.94766 10.9831 9.60548 11.969C9.22501 13.0604 9.45626 14.1905 10.266 15.0155C10.7004 15.4601 11.2871 15.7534 11.8441 16.0046C12.4727 16.2882 13.2457 16.4925 13.6516 17.0979C14.0859 17.7448 13.5242 18.3839 12.9172 18.5683C12.1024 18.8132 11.1149 18.4464 10.4305 18.0187C10.1305 17.8323 9.78165 18.0253 9.67266 18.3272L9.29532 19.38C9.21485 19.6026 9.34884 19.8429 9.53321 19.9632C10.1789 20.3843 10.9199 20.5952 11.6793 20.6827V21.7944C11.6793 21.9437 11.7348 22.0597 11.8168 22.1433C11.8219 22.1487 11.827 22.1534 11.8301 22.1585C11.8355 22.1625 11.8406 22.1669 11.8453 22.1718C11.9274 22.2538 12.043 22.3093 12.1941 22.3093H13.1852C13.3213 22.3081 13.4514 22.2535 13.5477 22.1573C13.644 22.0611 13.6987 21.9309 13.7 21.7948V20.5659C14.7715 20.2577 15.5996 19.5667 16.0172 18.4905C16.4453 17.3944 16.0813 16.1167 15.3051 15.2886" fill="#25333A"/>
</svg>
