<svg width="27" height="27" viewBox="0 0 27 27" fill="none" xmlns="http://www.w3.org/2000/svg">
<path d="M22.4146 4.57143V22.4286L22.9146 23.619H23.4146M22.4146 4.57143L22.4146 2.5C22.4146 2 21.4146 1 20.4146 1H3.41461C2.41461 1 1.41461 1.5 1.41461 2.5L1.41462 24C1.41462 24 1.41676 25.0022 1.91459 25.5C2.41461 26 3.41462 26 3.41462 26H23.4826C23.4826 26 24.4146 26 24.9146 25.5C25.4146 25 25.4146 24.3033 25.4146 24.3033V5C25.3361 4.63737 24.6763 4.57143 24.4693 4.57143H22.4146ZM4.91461 5.16667H18.9146M13.4146 8.14286H18.9146M13.4146 11.7143H18.9146M13.4146 15.2857H18.9146M13.4146 21.8333H18.9146M13.4146 18.2619H18.9146M4.91461 18.2619H10.4146M4.91461 21.8333H10.4146M4.91461 8.7381H10.4146V15.2857H4.91461V8.7381Z" stroke="white" stroke-width="2" stroke-linecap="round" stroke-linejoin="round"/>
</svg>
