<svg width="112" height="23" viewBox="0 0 112 23" fill="none" xmlns="http://www.w3.org/2000/svg">
<g clip-path="url(#clip0_483_5163)">
<path fill-rule="evenodd" clip-rule="evenodd" d="M72.0351 13.9184C71.4422 13.9184 71.1457 13.6254 71.1457 13.1859C71.1457 12.8188 71.4422 12.5403 71.9598 12.4534L73.5895 12.1604V12.3069C73.5895 13.2583 72.9229 13.9184 72.0351 13.9184ZM71.3685 15.5315C72.7754 15.5315 73.5158 14.5044 73.5158 14.5044H73.5895V15.385C74.0334 15.385 75.5894 15.385 75.5894 15.385V10.9127C75.5894 9.2996 74.3298 8.05355 72.479 8.05355C70.5544 8.05355 69.5177 9.4461 69.5177 9.4461L70.7019 10.6197C70.7019 10.6197 71.2948 9.81316 72.3316 9.81316C73.0719 9.81316 73.5158 10.2527 73.5911 10.7662L71.2964 11.1767C69.9631 11.4118 69.1491 12.3053 69.1491 13.4789C69.1475 14.6525 70.0352 15.5315 71.3685 15.5315ZM56.4144 15.385H58.4142V11.4263C58.4142 10.5457 59.0071 9.95966 59.8212 9.95966C60.5615 9.95966 61.0054 10.3992 61.0054 11.2057V15.385H63.0053V11.4263C63.0053 10.5457 63.5982 9.95966 64.4122 9.95966C65.1526 9.95966 65.5964 10.3992 65.5964 11.2057V15.385H67.5963V10.9127C67.5963 9.1531 66.4858 8.05355 65.0788 8.05355C63.5245 8.05355 62.7088 9.2996 62.7088 9.2996H62.6351C62.6351 9.2996 62.0422 8.05355 60.4878 8.05355C59.0809 8.05355 58.488 9.22716 58.488 9.22716H58.4142V8.20005H56.4144V15.385ZM53.4867 7.247C54.1229 7.247 54.6421 6.73344 54.6421 6.14744C54.6421 5.56144 54.1245 5.04789 53.5011 5.04789C52.8649 5.04789 52.3457 5.56144 52.3457 6.14744C52.3473 6.73344 52.8649 7.247 53.4867 7.247ZM52.4948 15.385H54.4946V8.20005H52.4948V15.385ZM49.6023 15.5315C50.3427 15.5315 50.9356 15.3109 50.9356 15.3109V13.4789C50.9356 13.4789 50.5654 13.6254 50.1215 13.6254C49.5286 13.6254 49.1585 13.2583 49.1585 12.5983V10.1786H50.7882V8.34494H49.1585V6.14584H47.3813V7.46594C47.3813 8.05194 47.0849 8.34655 46.5673 8.34655H45.9007V10.1802H47.1602V12.8929C47.1586 14.5784 48.1201 15.5315 49.6023 15.5315ZM41.2311 13.6994C40.1943 13.6994 39.3803 12.8929 39.3803 11.7933C39.3803 10.6938 40.1943 9.88721 41.2311 9.88721C42.2679 9.88721 43.0819 10.6938 43.0819 11.7933C43.0819 12.8929 42.2679 13.6994 41.2311 13.6994ZM37.4541 18.4647H39.454V14.3595H39.5277C39.5277 14.3595 40.268 15.5331 41.8224 15.5331C43.5258 15.5331 45.0802 13.994 45.0802 11.7933C45.0802 9.59421 43.5258 8.05355 41.8224 8.05355C40.268 8.05355 39.5277 9.22716 39.5277 9.22716H39.454V8.20005H37.4541V18.4647ZM30.203 13.5529C28.3522 13.5529 26.8715 12.0863 26.8715 10.2543C26.8715 8.4206 28.3522 6.95561 30.203 6.95561C32.0539 6.95561 33.5345 8.42221 33.5345 10.2543C33.5361 12.0863 32.0555 13.5529 30.203 13.5529ZM30.203 15.6055C33.3871 15.6055 35.8308 13.1859 35.8308 10.2527C35.8308 7.31944 33.3871 4.89978 30.203 4.89978C27.0189 4.89978 24.5752 7.31944 24.5752 10.2527C24.5752 13.1859 27.0189 15.6055 30.203 15.6055Z" fill="white"/>
<path fill-rule="evenodd" clip-rule="evenodd" d="M10.5137 0.589997C8.76061 0.557799 7.10528 0.958661 5.64865 1.68955L16.1207 10.6598C16.2281 10.7532 16.2281 10.919 16.1207 11.0108L5.64865 19.9811C7.05079 20.683 8.63402 21.0806 10.3134 21.0806C16.1031 21.0806 20.7806 16.3733 20.6604 10.6132C20.5403 5.14759 16.031 0.693029 10.5137 0.589997ZM105.027 15.3849H107.026V13.6977L107.989 12.5981L109.84 15.3849H112.135L109.321 11.2056L111.988 8.19993H109.618L107.026 11.1331V5.12022H105.027V15.3849ZM96.1457 15.3849H98.1456V11.5726C98.1456 10.6196 98.8122 9.95954 99.6999 9.95954C100.514 9.95954 101.033 10.4731 101.033 11.3521V15.3849H103.033V11.0591C103.033 9.22543 101.849 8.05343 100.367 8.05343C98.9596 8.05343 98.2193 9.22704 98.2193 9.22704H98.1456V8.19993H96.1457V15.3849ZM90.6653 13.9182C90.0724 13.9182 89.7759 13.6252 89.7759 13.1857C89.7759 12.8187 90.0724 12.5402 90.59 12.4533L92.2197 12.1603V12.3068C92.2197 13.2582 91.5531 13.9182 90.6653 13.9182ZM89.9987 15.5314C91.4056 15.5314 92.146 14.5042 92.146 14.5042H92.2197V15.3849C92.6636 15.3849 94.2195 15.3849 94.2195 15.3849V10.9126C94.2195 9.29948 92.96 8.05343 91.1092 8.05343C89.1846 8.05343 88.1478 9.44598 88.1478 9.44598L89.3321 10.6196C89.3321 10.6196 89.925 9.81304 90.9618 9.81304C91.7021 9.81304 92.146 10.2525 92.2213 10.7661L89.9266 11.1766C88.5933 11.4117 87.7793 12.3051 87.7793 13.4787C87.7777 14.6524 88.6654 15.5314 89.9987 15.5314ZM80.5137 9.07893V7.02632H82.5136C83.2539 7.02632 83.6978 7.46582 83.6978 8.05343C83.6978 8.63943 83.2539 9.08054 82.5136 9.08054H80.5137V9.07893ZM80.5137 13.4787V10.985H82.8085C83.6962 10.985 84.2154 11.4986 84.2154 12.2311C84.2154 12.9636 83.6978 13.4771 82.8085 13.4771H80.5137V13.4787ZM78.2927 15.3849H82.9575C85.1785 15.3849 86.5117 14.0647 86.5117 12.4516C86.5117 10.4715 84.5872 9.95954 84.5872 9.95954C84.5872 9.95954 85.9941 9.44598 85.9941 7.83287C85.9941 6.36627 84.7346 5.12022 82.6626 5.12022H78.2943V15.3849H78.2927ZM7.6389 10.399L5.54449 1.74107C2.22901 3.44916 -0.0368652 6.87821 -0.0368652 10.8337C-0.0368652 14.7892 2.22901 18.2199 5.54449 19.9263L7.6389 11.2684C7.7062 10.9818 7.7062 10.684 7.6389 10.399Z" fill="white"/>
</g>
<defs>
<clipPath id="clip0_483_5163">
<rect width="112" height="23" fill="white"/>
</clipPath>
</defs>
</svg>
