<svg width="14" height="14" viewBox="0 0 14 14" fill="none" xmlns="http://www.w3.org/2000/svg">
<path d="M10.2287 6.23666C9.97828 6.23666 9.77066 6.02904 9.77066 5.77866V4.55732C9.77066 2.63372 9.22716 1.35131 6.56464 1.35131C3.90213 1.35131 3.35863 2.63372 3.35863 4.55732V5.77866C3.35863 6.02904 3.151 6.23666 2.90063 6.23666C2.65025 6.23666 2.44263 6.02904 2.44263 5.77866V4.55732C2.44263 2.78638 2.8701 0.435307 6.56464 0.435307C10.2592 0.435307 10.6867 2.78638 10.6867 4.55732V5.77866C10.6867 6.02904 10.479 6.23666 10.2287 6.23666Z" fill="#5E8CC7"/>
<path d="M6.56463 11.4274C5.47153 11.4274 4.57996 10.5358 4.57996 9.44268C4.57996 8.34958 5.47153 7.458 6.56463 7.458C7.65773 7.458 8.54931 8.34958 8.54931 9.44268C8.54931 10.5358 7.65773 11.4274 6.56463 11.4274ZM6.56463 8.37401C5.97839 8.37401 5.49596 8.85644 5.49596 9.44268C5.49596 10.0289 5.97839 10.5113 6.56463 10.5113C7.15087 10.5113 7.6333 10.0289 7.6333 9.44268C7.6333 8.85644 7.15087 8.37401 6.56463 8.37401Z" fill="#5E8CC7"/>
<path d="M9.61804 13.5647H3.51135C0.818297 13.5647 0 12.7464 0 10.0533V8.83201C0 6.13896 0.818297 5.32066 3.51135 5.32066H9.61804C12.3111 5.32066 13.1294 6.13896 13.1294 8.83201V10.0533C13.1294 12.7464 12.3111 13.5647 9.61804 13.5647ZM3.51135 6.23666C1.32515 6.23666 0.916004 6.65192 0.916004 8.83201V10.0533C0.916004 12.2334 1.32515 12.6487 3.51135 12.6487H9.61804C11.8042 12.6487 12.2134 12.2334 12.2134 10.0533V8.83201C12.2134 6.65192 11.8042 6.23666 9.61804 6.23666H3.51135Z" fill="#5E8CC7"/>
</svg>
