<svg width="304" height="260" viewBox="0 0 304 260" fill="none" xmlns="http://www.w3.org/2000/svg">
<g clip-path="url(#clip0_396_1500)">
<path d="M22.8043 238.599C24.5542 239.213 26.4331 239.367 28.2598 239.046C30.0866 238.725 31.7997 237.94 33.2342 236.767C36.8872 233.707 38.0328 228.669 38.9644 224.002L41.7209 210.199L35.95 214.163C31.7997 217.014 27.5561 219.957 24.6827 224.087C21.8094 228.216 20.5558 233.854 22.8638 238.322" fill="#E6E6E6"/>
<path d="M23.6955 256.272C22.9691 250.992 22.2218 245.644 22.7325 240.308C23.1851 235.569 24.6344 230.941 27.5848 227.144C29.1509 225.133 31.0565 223.411 33.216 222.053C33.779 221.699 34.2973 222.589 33.7367 222.942C30.0001 225.298 27.1099 228.777 25.4828 232.877C23.6858 237.437 23.3973 242.408 23.7068 247.252C23.8939 250.181 24.2915 253.091 24.6908 255.998C24.7223 256.129 24.7026 256.268 24.6357 256.385C24.5688 256.503 24.4597 256.591 24.3304 256.631C24.1984 256.666 24.0578 256.648 23.939 256.581C23.8203 256.514 23.7329 256.402 23.6958 256.271L23.6955 256.272Z" fill="#F2F2F2"/>
<path d="M28.9236 247.8C29.674 248.938 30.7056 249.865 31.919 250.49C33.1324 251.115 34.4867 251.417 35.8514 251.369C39.3593 251.202 42.2826 248.761 44.9139 246.442L52.6983 239.585L47.5465 239.339C43.8415 239.162 40.0409 238.996 36.512 240.137C32.9832 241.278 29.7287 244.02 29.0835 247.665" fill="#E6E6E6"/>
<path d="M21.6422 259.307C25.1391 253.134 29.1949 246.273 36.4425 244.08C38.4575 243.472 40.5704 243.255 42.6674 243.439C43.3283 243.496 43.1633 244.512 42.5036 244.455C38.9886 244.164 35.4803 245.09 32.5694 247.077C29.7682 248.98 27.5871 251.625 25.7413 254.429C24.6105 256.147 23.5977 257.938 22.5849 259.726C22.2612 260.298 21.3148 259.885 21.6422 259.307Z" fill="#F2F2F2"/>
<path d="M301.448 183.099H108.658C108.064 183.099 107.495 182.863 107.074 182.444C106.654 182.025 106.418 181.456 106.417 180.864V2.23564C106.418 1.64295 106.654 1.07475 107.074 0.655659C107.495 0.236564 108.064 0.000774795 108.658 0H301.448C302.042 0.000774795 302.611 0.236564 303.031 0.655659C303.451 1.07475 303.688 1.64295 303.689 2.23564V180.863C303.688 181.456 303.452 182.024 303.032 182.443C302.611 182.862 302.042 183.099 301.448 183.099Z" fill="white"/>
<path d="M301.448 183.099H108.658C108.064 183.099 107.495 182.863 107.074 182.444C106.654 182.025 106.418 181.456 106.417 180.864V2.23564C106.418 1.64295 106.654 1.07475 107.074 0.655659C107.495 0.236564 108.064 0.000774795 108.658 0H301.448C302.042 0.000774795 302.611 0.236564 303.031 0.655659C303.451 1.07475 303.688 1.64295 303.689 2.23564V180.863C303.688 181.456 303.452 182.024 303.032 182.443C302.611 182.862 302.042 183.099 301.448 183.099ZM108.658 0.892495C108.302 0.893266 107.961 1.03472 107.709 1.28589C107.457 1.53706 107.316 1.8775 107.315 2.23271V180.863C107.316 181.218 107.457 181.559 107.709 181.81C107.961 182.061 108.302 182.203 108.658 182.203H301.448C301.804 182.203 302.145 182.061 302.397 181.81C302.649 181.559 302.79 181.218 302.791 180.863V2.23564C302.79 1.88043 302.649 1.53999 302.397 1.28882C302.145 1.03765 301.804 0.8962 301.448 0.895429L108.658 0.892495Z" fill="#CACACA"/>
<path d="M199.755 46.417C199.352 46.4177 198.965 46.5779 198.681 46.8625C198.396 47.147 198.236 47.5327 198.236 47.9348C198.236 48.3369 198.396 48.7225 198.681 49.0071C198.965 49.2917 199.352 49.4519 199.755 49.4526H283.23C283.633 49.4519 284.019 49.2917 284.304 49.0071C284.589 48.7225 284.749 48.3369 284.749 47.9348C284.749 47.5327 284.589 47.147 284.304 46.8625C284.019 46.5779 283.633 46.4177 283.23 46.417H199.755Z" fill="#E4E4E4"/>
<path d="M199.755 55.5247C199.352 55.5256 198.966 55.686 198.681 55.9705C198.397 56.255 198.237 56.6405 198.237 57.0425C198.237 57.4444 198.397 57.8299 198.681 58.1144C198.966 58.3989 199.352 58.5593 199.755 58.5602H242.37C242.773 58.5593 243.159 58.3989 243.444 58.1144C243.728 57.8299 243.888 57.4444 243.888 57.0425C243.888 56.6405 243.728 56.255 243.444 55.9705C243.159 55.686 242.773 55.5256 242.37 55.5247H199.755Z" fill="#E4E4E4"/>
<path d="M126.795 104.502C126.392 104.503 126.006 104.663 125.721 104.948C125.437 105.232 125.277 105.618 125.277 106.02C125.277 106.422 125.437 106.807 125.721 107.092C126.006 107.376 126.392 107.537 126.795 107.538H283.311C283.714 107.537 284.1 107.376 284.384 107.092C284.669 106.807 284.829 106.422 284.829 106.02C284.829 105.618 284.669 105.232 284.384 104.948C284.1 104.663 283.714 104.503 283.311 104.502H126.795Z" fill="#E4E4E4"/>
<path d="M126.795 113.609C126.392 113.61 126.006 113.771 125.721 114.055C125.437 114.34 125.277 114.725 125.277 115.127C125.277 115.529 125.437 115.915 125.721 116.199C126.006 116.484 126.392 116.644 126.795 116.645H242.452C242.855 116.644 243.241 116.484 243.525 116.199C243.81 115.915 243.969 115.529 243.969 115.127C243.969 114.725 243.81 114.34 243.525 114.055C243.241 113.771 242.855 113.61 242.452 113.609H126.795Z" fill="#E4E4E4"/>
<path d="M126.795 122.511C126.392 122.512 126.006 122.672 125.721 122.957C125.437 123.241 125.277 123.627 125.277 124.029C125.277 124.431 125.437 124.816 125.721 125.101C126.006 125.385 126.392 125.546 126.795 125.547H283.311C283.714 125.546 284.1 125.385 284.384 125.101C284.669 124.816 284.829 124.431 284.829 124.029C284.829 123.627 284.669 123.241 284.384 122.957C284.1 122.672 283.714 122.512 283.311 122.511H126.795Z" fill="#E4E4E4"/>
<path d="M126.795 131.618C126.392 131.619 126.006 131.78 125.721 132.064C125.437 132.349 125.277 132.734 125.277 133.136C125.277 133.538 125.437 133.924 125.721 134.208C126.006 134.493 126.392 134.653 126.795 134.654H242.452C242.855 134.653 243.241 134.493 243.525 134.208C243.81 133.924 243.969 133.538 243.969 133.136C243.969 132.734 243.81 132.349 243.525 132.064C243.241 131.78 242.855 131.619 242.452 131.618H126.795Z" fill="#E4E4E4"/>
<path d="M126.795 140.757C126.392 140.758 126.006 140.918 125.721 141.203C125.437 141.487 125.277 141.873 125.277 142.275C125.277 142.677 125.437 143.062 125.721 143.347C126.006 143.631 126.392 143.792 126.795 143.793H283.311C283.714 143.792 284.1 143.631 284.384 143.347C284.669 143.062 284.829 142.677 284.829 142.275C284.829 141.873 284.669 141.487 284.384 141.203C284.1 140.918 283.714 140.758 283.311 140.757H126.795Z" fill="#E4E4E4"/>
<path d="M126.795 149.865C126.392 149.866 126.006 150.026 125.721 150.311C125.437 150.595 125.277 150.981 125.277 151.383C125.277 151.784 125.437 152.17 125.721 152.454C126.006 152.739 126.392 152.899 126.795 152.9H242.452C242.855 152.899 243.241 152.739 243.525 152.454C243.81 152.17 243.969 151.784 243.969 151.383C243.969 150.981 243.81 150.595 243.525 150.311C243.241 150.026 242.855 149.866 242.452 149.865H126.795Z" fill="#E4E4E4"/>
<path d="M151.585 74.2949C147.262 74.295 143.037 73.0161 139.442 70.62C135.848 68.2239 133.047 64.8182 131.392 60.8336C129.738 56.849 129.305 52.4645 130.149 48.2344C130.992 44.0044 133.073 40.1189 136.13 37.0692C139.187 34.0195 143.081 31.9426 147.321 31.1012C151.561 30.2597 155.955 30.6916 159.949 32.342C163.943 33.9925 167.356 36.7875 169.758 40.3735C172.16 43.9596 173.442 48.1756 173.442 52.4885C173.435 58.2699 171.13 63.8126 167.033 67.9007C162.935 71.9887 157.38 74.2883 151.585 74.2949Z" fill="#153964"/>
<path d="M85.2392 156.746C85.2015 155.95 84.9892 155.172 84.6174 154.467C84.2457 153.762 83.7235 153.147 83.0876 152.665C82.4517 152.182 81.7175 151.845 80.9369 151.677C80.1563 151.509 79.3482 151.513 78.5694 151.69L71.345 141.532L64.0872 144.407L74.4914 158.609C74.876 159.894 75.7198 160.994 76.8631 161.7C78.0063 162.407 79.3695 162.67 80.6943 162.44C82.0191 162.211 83.2135 161.504 84.0512 160.455C84.8888 159.406 85.3116 158.086 85.2392 156.746Z" fill="#A0616A"/>
<path d="M71.1591 155.994L49.2992 127.7L57.4899 102.017C58.0901 95.5595 62.14 93.7565 62.3123 93.6828L62.5752 93.5703L69.7026 112.534L64.4694 126.457L77.3142 148.011L71.1591 155.994Z" fill="#3F3D56"/>
<path d="M147.075 68.7729C146.283 68.8721 145.522 69.1434 144.846 69.5677C144.17 69.992 143.595 70.5591 143.162 71.2289C142.73 71.8987 142.45 72.655 142.342 73.4445C142.234 74.234 142.301 75.0376 142.538 75.7985L132.946 83.7702L136.379 90.7674L149.767 79.3201C151.022 78.8382 152.056 77.9137 152.673 76.7219C153.29 75.5301 153.448 74.1537 153.116 72.8536C152.785 71.5536 151.986 70.4201 150.873 69.668C149.759 68.9159 148.408 68.5974 147.075 68.7729Z" fill="#A0616A"/>
<path d="M147.411 82.8369L120.828 106.769L94.5292 100.607C88.0303 100.509 85.9154 96.6204 85.8284 96.4547L85.6957 96.2019L104.095 87.6459L118.413 91.775L138.958 77.3315L147.411 82.8369Z" fill="#3F3D56"/>
<path d="M101.364 252.971L108.507 252.97L111.904 225.484L101.363 225.484L101.364 252.971Z" fill="#A0616A"/>
<path d="M122.282 259.587L99.8337 259.588L99.8333 250.935L115.983 250.934C117.654 250.934 119.256 251.596 120.437 252.774C121.618 253.952 122.282 255.551 122.282 257.217L122.282 259.587Z" fill="#2F2E41"/>
<path d="M72.8164 252.971L79.9591 252.97L83.3571 225.484L72.8156 225.484L72.8164 252.971Z" fill="#A0616A"/>
<path d="M93.7343 259.587L71.2863 259.588L71.2859 250.935L87.4361 250.934C88.2631 250.934 89.0821 251.096 89.8462 251.412C90.6103 251.728 91.3046 252.191 91.8894 252.774C92.4742 253.358 92.9382 254.05 93.2547 254.813C93.5712 255.575 93.7342 256.392 93.7342 257.217L93.7343 259.587Z" fill="#2F2E41"/>
<path d="M70.2762 152.641L70.8587 193.329L71.4417 246.806L84.2585 245.643L90.6674 171.823L98.8239 245.643H112.056L113.389 171.242L108.728 154.966L70.2762 152.641Z" fill="#2F2E41"/>
<path d="M95.3627 158.105C81.4168 158.106 68.5797 151.808 68.4064 151.722L68.2625 151.65L67.0922 123.628C66.7528 122.638 60.0702 103.099 58.9384 96.8882C57.7916 90.596 74.4112 85.0738 76.4294 84.4281L76.8874 79.3663L95.5116 77.364L97.8721 83.8408L104.554 86.3404C105.311 86.624 105.938 87.175 106.316 87.8889C106.693 88.6029 106.795 89.4302 106.602 90.2141L102.888 105.281L111.958 155.13L110.006 155.214C105.325 157.323 100.274 158.105 95.3627 158.105Z" fill="#3F3D56"/>
<path d="M93.3605 72.5187C99.8588 68.9746 102.247 60.8456 98.6947 54.3622C95.1424 47.8788 86.9947 45.4961 80.4964 49.0402C73.9981 52.5844 71.6099 60.7134 75.1622 67.1968C78.7146 73.6802 86.8622 76.0629 93.3605 72.5187Z" fill="#A0616A"/>
<path d="M76.0676 73.7313C78.6232 76.4472 83.3692 74.9893 83.7022 71.2789C83.7283 70.9908 83.7264 70.7009 83.6965 70.4132C83.5246 68.7696 82.5729 67.2775 82.8008 65.5422C82.8524 65.1103 83.0137 64.6987 83.2694 64.3464C85.3058 61.6257 90.0862 65.5633 92.0081 63.1003C93.1866 61.59 91.8013 59.2122 92.7057 57.5243C93.8993 55.2965 97.4346 56.3954 99.6517 55.1754C102.118 53.8179 101.971 50.0419 100.347 47.7451C98.3668 44.9441 94.8948 43.4495 91.466 43.2341C88.0373 43.0187 84.6321 43.9435 81.431 45.1881C77.794 46.6023 74.1873 48.5566 71.9491 51.7474C69.2273 55.6277 68.9653 60.8444 70.3266 65.3816C71.1547 68.1417 73.9808 71.5134 76.0676 73.7313Z" fill="#2F2E41"/>
<path d="M170.391 259.932H0.446051C0.327751 259.932 0.214289 259.885 0.130638 259.801C0.0469874 259.718 0 259.605 0 259.487C0 259.369 0.0469874 259.256 0.130638 259.172C0.214289 259.089 0.327751 259.042 0.446051 259.042H170.391C170.51 259.042 170.623 259.089 170.707 259.172C170.79 259.256 170.837 259.369 170.837 259.487C170.837 259.605 170.79 259.718 170.707 259.801C170.623 259.885 170.51 259.932 170.391 259.932Z" fill="#CACACA"/>
<path d="M150.323 60.7248C149.929 60.7253 149.549 60.5765 149.261 60.3085L142.054 53.6298C141.751 53.3485 141.573 52.9588 141.557 52.5463C141.542 52.1337 141.692 51.7321 141.974 51.4296C142.255 51.1271 142.646 50.9486 143.059 50.9331C143.473 50.9177 143.875 51.0666 144.179 51.3473L150.283 57.0044L162.361 44.9548C162.506 44.8092 162.678 44.6936 162.867 44.6146C163.057 44.5356 163.261 44.4948 163.466 44.4944C163.672 44.494 163.875 44.5341 164.065 44.6124C164.255 44.6907 164.428 44.8057 164.573 44.9507C164.718 45.0957 164.833 45.2679 164.912 45.4575C164.99 45.647 165.031 45.8501 165.03 46.0552C165.03 46.2602 164.989 46.4632 164.909 46.6524C164.83 46.8416 164.714 47.0133 164.568 47.1578L151.427 60.2687C151.282 60.4135 151.11 60.5283 150.921 60.6066C150.731 60.6849 150.528 60.7251 150.323 60.7248Z" fill="white"/>
</g>
<defs>
<clipPath id="clip0_396_1500">
<rect width="303.689" height="260" fill="white"/>
</clipPath>
</defs>
</svg>
