<svg width="25" height="25" viewBox="0 0 25 25" fill="none" xmlns="http://www.w3.org/2000/svg">
<path d="M12.5004 5.34946e-05C11.5024 5.34946e-05 10.5703 0.408732 9.77586 1.07795C8.98149 1.74733 8.30142 2.67954 7.73451 3.80872C7.6157 4.04527 7.50224 4.29112 7.39376 4.54472C7.10124 4.50296 6.80746 4.46865 6.51278 4.44183C6.17001 4.41111 5.83556 4.39204 5.51061 4.3852C4.53517 4.36436 3.64367 4.45331 2.86231 4.66631C1.82058 4.95035 0.960982 5.47207 0.461976 6.2492C-0.03703 7.02649 -0.109505 7.95678 0.1378 8.91015C0.385224 9.86346 0.942863 10.8592 1.74692 11.8653C1.91563 12.0764 2.09586 12.288 2.28608 12.4996C2.09999 12.7062 1.92043 12.9175 1.74763 13.1332C0.943517 14.1393 0.385877 15.135 0.138513 16.0884C-0.108851 17.0418 -0.036317 17.9721 0.462689 18.7492C0.961695 19.5265 1.82129 20.0482 2.86303 20.3321C3.90482 20.6162 5.14259 20.6797 6.51349 20.5566C6.80089 20.5307 7.09448 20.4962 7.39317 20.4539C7.49918 20.7025 7.61301 20.9484 7.73451 21.1912C8.30142 22.3206 8.98143 23.2526 9.77586 23.9219C10.5703 24.5912 11.5025 25 12.5004 25C13.4983 25 14.4305 24.5912 15.2249 23.9219C16.0193 23.2526 16.6994 22.3205 17.2663 21.1912C17.3878 20.9484 17.5016 20.7026 17.6076 20.454C17.906 20.4962 18.1993 20.5308 18.4865 20.5566C19.8574 20.6797 21.0953 20.6161 22.1369 20.3321C23.1788 20.0481 24.0384 19.5264 24.5374 18.7492C25.0364 17.9719 25.1089 17.0417 24.8616 16.0884C24.6142 15.1351 24.0565 14.1394 23.2525 13.1332C23.0796 12.9175 22.9 12.7062 22.714 12.4996C22.9003 12.2929 23.0801 12.0814 23.2531 11.8654C24.0572 10.8593 24.6148 9.86352 24.8622 8.9102C25.1095 7.95683 25.037 7.02654 24.538 6.24925C24.039 5.47212 23.1794 4.9504 22.1377 4.66636C21.3564 4.45336 20.4648 4.36442 19.4895 4.3852C19.1643 4.39204 18.8298 4.41111 18.4871 4.44183C18.1996 4.46768 17.9057 4.50235 17.6069 4.54466C17.501 4.29652 17.3873 4.05111 17.2661 3.80872C16.6992 2.67938 16.0191 1.74717 15.2247 1.0779C14.4303 0.408625 13.4981 0 12.5002 0L12.5004 5.34946e-05ZM12.5004 0.99835C13.1661 0.99835 13.8188 1.26135 14.4659 1.80663C15.113 2.3518 15.7311 3.17706 16.2544 4.21954C16.3396 4.38963 16.4205 4.56138 16.4972 4.73469C15.2249 4.98908 13.8774 5.37938 12.5001 5.90089C11.1231 5.37949 9.77574 4.98929 8.50369 4.7349C8.58223 4.55807 8.6629 4.38573 8.74642 4.21948C9.26978 3.17695 9.88784 2.35169 10.535 1.80641C11.1822 1.26124 11.8348 0.998244 12.5006 0.998244L12.5004 0.99835ZM5.15851 5.382C5.26568 5.38104 5.37457 5.38168 5.48512 5.38392C5.77977 5.3898 6.08613 5.40689 6.40252 5.43537C6.60486 5.45353 6.81165 5.47677 7.02176 5.50418C6.63052 6.62214 6.33266 7.8666 6.14601 9.19991C4.95505 10.0119 3.90535 10.8664 3.02425 11.7301C2.8953 11.5835 2.76998 11.4342 2.64839 11.2826C1.90612 10.3538 1.42048 9.45981 1.21892 8.68316C1.01742 7.90651 1.0906 7.26678 1.42339 6.74837C1.75618 6.22997 2.33586 5.85318 3.18441 5.62181C3.74134 5.46993 4.40816 5.38809 5.15845 5.38195L5.15851 5.382ZM19.8416 5.382C20.5919 5.38814 21.2588 5.46999 21.8157 5.62186C22.6644 5.85318 23.2438 6.22997 23.5766 6.74837C23.9094 7.26678 23.9827 7.90656 23.7812 8.68316C23.5798 9.45975 23.0939 10.3538 22.3517 11.2826C22.2301 11.4343 22.1048 11.5835 21.976 11.7302C21.095 10.8666 20.0456 10.0124 18.855 9.20044C18.6684 7.86692 18.3702 6.6223 17.979 5.50418C18.1889 5.47677 18.3954 5.45342 18.5976 5.43537C18.9025 5.40758 19.2086 5.3904 19.515 5.38387C19.6239 5.38164 19.7328 5.38099 19.8416 5.38189V5.382ZM16.8761 5.6833C17.1714 6.50803 17.4158 7.41802 17.5983 8.3918C17.0089 8.03377 16.4056 7.6946 15.7896 7.37491C15.174 7.05514 14.5461 6.75503 13.907 6.47512C14.9359 6.13028 15.9344 5.86574 16.8761 5.68341V5.6833ZM8.12469 5.68346C9.06626 5.86584 10.0646 6.13039 11.0932 6.47517C10.4541 6.75508 9.82618 7.05518 9.21062 7.37491C8.59488 7.69446 7.99185 8.03344 7.40267 8.39121C7.58505 7.4177 7.82944 6.50798 8.12469 5.68346ZM12.5001 6.99016C13.4035 7.34852 14.3204 7.765 15.2345 8.2396C16.1489 8.71441 17.009 9.22042 17.8059 9.74503C17.9126 10.6279 17.97 11.5506 17.97 12.5C17.97 13.4489 17.9127 14.3712 17.8061 15.2537C17.0092 15.7782 16.1493 16.2841 15.2352 16.7588C14.3209 17.2335 13.4037 17.6501 12.5001 18.0084C11.5965 17.6501 10.6792 17.2335 9.76499 16.7588C8.85104 16.2843 7.9915 15.7785 7.19487 15.2542C7.08824 14.3715 7.03091 13.4491 7.03091 12.4999C7.03091 11.5504 7.08824 10.6276 7.19499 9.7446C7.9918 9.22016 8.85151 8.7142 9.76564 8.2396C10.6798 7.76505 11.5968 7.34852 12.5001 6.99027V6.99016ZM12.5752 8.49218L9.39685 10.256L12.5752 12.02L15.7535 10.256L12.5752 8.49212V8.49218ZM5.99542 10.5828C5.94547 11.2208 5.92056 11.8602 5.92074 12.4998C5.92074 13.1515 5.94629 13.7912 5.99548 14.4158C5.14895 13.787 4.39491 13.1417 3.74835 12.4994C4.39491 11.8571 5.14889 11.2117 5.99542 10.5828ZM19.0055 10.5833C19.8516 11.2121 20.6055 11.8573 21.2518 12.4994C20.6055 13.1415 19.8516 13.7867 19.0055 14.4153C19.0554 13.7778 19.0803 13.139 19.0801 12.4999C19.0801 11.8479 19.0546 11.2081 19.0054 10.5833H19.0055ZM8.68084 11.0317V14.5148L12.0188 16.3673V12.8844L8.68084 11.0317ZM16.4664 11.0336L13.1292 12.8857V16.3669L16.4665 14.5148V11.0336H16.4664ZM3.02413 13.2687C3.90535 14.1326 4.95493 14.9868 6.14577 15.7988C6.3323 17.132 6.63028 18.3763 7.02141 19.4943C6.81171 19.5215 6.60521 19.5449 6.40323 19.563C5.13766 19.6767 4.03373 19.6079 3.18512 19.3766C2.33646 19.1453 1.75701 18.7683 1.42417 18.2499C1.09138 17.7315 1.01813 17.0917 1.21963 16.3151C1.42114 15.5385 1.90684 14.6445 2.64911 13.7157C2.77044 13.5643 2.89544 13.4152 3.02413 13.2687ZM21.9759 13.2689C22.107 13.4185 22.2325 13.5675 22.3509 13.7157C23.0931 14.6445 23.5788 15.5385 23.7803 16.3151C23.9818 17.0917 23.9088 17.7314 23.576 18.2499C23.2431 18.7683 22.6635 19.1452 21.8149 19.3765C20.9663 19.6079 19.8626 19.6766 18.597 19.563C18.3906 19.5441 18.1847 19.5213 17.9795 19.4943C18.3706 18.3761 18.6686 17.1315 18.8551 15.7981C20.0456 14.9863 21.095 14.1323 21.976 13.2688L21.9759 13.2689ZM17.5985 16.6069C17.4161 17.5805 17.1717 18.4905 16.8765 19.3152C15.9347 19.1329 14.9361 18.8682 13.9072 18.5234C14.5464 18.2434 15.1745 17.9431 15.7903 17.6233C16.4062 17.3037 17.0093 16.9647 17.5986 16.6069H17.5985ZM7.40243 16.6074C7.99141 16.9651 8.59423 17.3039 9.20979 17.6233C9.82556 17.9431 10.4537 18.2433 11.0929 18.5234C10.0643 18.8681 9.06602 19.1328 8.12427 19.3151C7.82902 18.4906 7.58481 17.5808 7.40243 16.6074ZM12.5333 16.6528L12.5737 16.6752L12.6139 16.6528H12.5333H12.5333ZM12.5 19.0978C13.8776 19.6192 15.2252 20.0094 16.4976 20.2638C16.4208 20.4376 16.3398 20.6098 16.2544 20.7804C15.7311 21.8228 15.113 22.648 14.4659 23.1933C13.8188 23.7385 13.1661 24.0015 12.5004 24.0015C11.8347 24.0015 11.182 23.7385 10.5349 23.1933C9.88784 22.648 9.26978 21.8228 8.74642 20.7803C8.66114 20.6097 8.58003 20.4375 8.50316 20.2637C9.77538 20.0093 11.1228 19.6191 12.5001 19.0978H12.5Z" fill="#153964"/>
</svg>
