<svg width="223" height="260" viewBox="0 0 223 260" fill="none" xmlns="http://www.w3.org/2000/svg">
<g clip-path="url(#clip0_396_1446)">
<path d="M215.792 95.8291H7.01654C5.1563 95.8269 3.37285 95.0873 2.05746 93.7724C0.742074 92.4576 0.00214798 90.6748 0 88.8153V7.01375C0.00214798 5.15424 0.742074 3.37152 2.05746 2.05665C3.37285 0.74178 5.1563 0.00214713 7.01654 0H215.792C217.653 0.00214713 219.436 0.74178 220.752 2.05665C222.067 3.37152 222.807 5.15424 222.809 7.01375V88.8154C222.807 90.6749 222.067 92.4576 220.752 93.7724C219.436 95.0873 217.653 95.8269 215.792 95.8291Z" fill="#F2F2F2"/>
<path d="M167.101 91.3558H40.1564C30.6967 91.3451 21.6275 87.584 14.9384 80.8976C8.24934 74.2112 4.48675 65.1456 4.47607 55.6896V40.1433C4.48674 30.6873 8.24932 21.6216 14.9384 14.9351C21.6274 8.24869 30.6967 4.48753 40.1564 4.47681H182.654C192.113 4.48753 201.183 8.24869 207.872 14.9351C214.561 21.6216 218.323 30.6873 218.334 40.1433C218.319 53.721 212.916 66.7381 203.311 76.339C193.707 85.9399 180.684 91.3404 167.101 91.3558Z" fill="white"/>
<path d="M134.355 27.8941H50.4426C49.9627 27.8941 49.5024 27.7035 49.1631 27.3643C48.8237 27.025 48.6331 26.565 48.6331 26.0852C48.6331 25.6055 48.8237 25.1454 49.1631 24.8062C49.5024 24.4669 49.9627 24.2764 50.4426 24.2764H134.355C134.835 24.2764 135.295 24.4669 135.634 24.8062C135.974 25.1454 136.164 25.6055 136.164 26.0852C136.164 26.565 135.974 27.025 135.634 27.3643C135.295 27.7035 134.835 27.8941 134.355 27.8941Z" fill="#E6E6E6"/>
<path d="M176.832 47.1931H50.4426C49.9627 47.1931 49.5024 47.0026 49.1631 46.6633C48.8237 46.3241 48.6331 45.864 48.6331 45.3843C48.6331 44.9045 48.8237 44.4445 49.1631 44.1052C49.5024 43.766 49.9627 43.5754 50.4426 43.5754H176.832C177.312 43.5754 177.773 43.766 178.112 44.1052C178.451 44.4445 178.642 44.9045 178.642 45.3843C178.642 45.864 178.451 46.3241 178.112 46.6633C177.773 47.0026 177.312 47.1931 176.832 47.1931Z" fill="#E6E6E6"/>
<path d="M176.832 66.4925H50.4426C49.9627 66.4925 49.5024 66.3019 49.1631 65.9626C48.8237 65.6234 48.6331 65.1633 48.6331 64.6836C48.6331 64.2039 48.8237 63.7438 49.1631 63.4046C49.5024 63.0653 49.9627 62.8748 50.4426 62.8748H176.832C177.312 62.8748 177.773 63.0653 178.112 63.4046C178.451 63.7438 178.642 64.2039 178.642 64.6836C178.642 65.1633 178.451 65.6234 178.112 65.9626C177.773 66.3019 177.312 66.4925 176.832 66.4925Z" fill="#E6E6E6"/>
<path d="M176.832 66.4925H50.4426C49.9627 66.4925 49.5024 66.3019 49.1631 65.9626C48.8237 65.6234 48.6331 65.1633 48.6331 64.6836C48.6331 64.2039 48.8237 63.7438 49.1631 63.4046C49.5024 63.0653 49.9627 62.8748 50.4426 62.8748H176.832C177.312 62.8748 177.773 63.0653 178.112 63.4046C178.451 63.7438 178.642 64.2039 178.642 64.6836C178.642 65.1633 178.451 65.6234 178.112 65.9626C177.773 66.3019 177.312 66.4925 176.832 66.4925Z" fill="#E6E6E6"/>
<path d="M125.5 49.4083C125.52 49.9532 125.659 50.487 125.908 50.9722C126.157 51.4574 126.509 51.8821 126.94 52.2165C127.371 52.5509 127.87 52.7868 128.402 52.9076C128.934 53.0284 129.485 53.0311 130.019 52.9157L136.92 64.2323L139.857 58.0022L132.853 48.2109C132.6 47.3286 132.031 46.5699 131.255 46.0785C130.48 45.5872 129.551 45.3973 128.644 45.5449C127.738 45.6925 126.917 46.1673 126.338 46.8794C125.758 47.5914 125.46 48.4912 125.5 49.4083Z" fill="#FFB6B6"/>
<path d="M177.287 81.8409L153.505 68.9461L146.004 61.911C146.004 61.911 142.743 61.0383 143.943 59.9784C145.143 58.9185 141.723 57.8962 141.723 57.8962L137.696 54.1196L131.974 58.1668L133.63 60.7329C133.63 60.7329 133.516 64.981 135.844 64.1637C138.172 63.3464 137.59 66.8696 137.59 66.8696L151.486 88.4015L177.287 81.8409Z" fill="#3F3D56"/>
<path d="M107.085 69.6921C119.914 69.6921 130.314 59.2961 130.314 46.4719C130.314 33.6478 119.914 23.2517 107.085 23.2517C94.2558 23.2517 83.8556 33.6478 83.8556 46.4719C83.8556 59.2961 94.2558 69.6921 107.085 69.6921Z" fill="#153964"/>
<path d="M177.361 250.972H172.531L170.232 232.35H177.361V250.972Z" fill="#FFB6B6"/>
<path d="M179.91 259.338H176.446L175.828 256.069L174.245 259.338H165.058C164.617 259.338 164.189 259.197 163.834 258.936C163.479 258.675 163.217 258.308 163.086 257.888C162.955 257.467 162.962 257.016 163.105 256.6C163.249 256.184 163.522 255.825 163.884 255.575L171.221 250.51V247.205L178.937 247.665L179.91 259.338Z" fill="#2F2E41"/>
<path d="M138.73 250.972H133.9L131.602 232.35H138.73V250.972Z" fill="#FFB6B6"/>
<path d="M141.28 259.338H137.816L137.198 256.069L135.614 259.338H126.427C125.987 259.338 125.558 259.197 125.203 258.936C124.849 258.675 124.587 258.308 124.456 257.888C124.325 257.467 124.331 257.016 124.475 256.6C124.619 256.184 124.892 255.825 125.254 255.575L132.59 250.51V247.205L140.307 247.665L141.28 259.338Z" fill="#2F2E41"/>
<path d="M172.236 110.131H147.857V137.874H172.236V110.131Z" fill="#FFB6B6"/>
<path d="M148.42 123.815L144.294 128.689L137.168 143.685L119.213 186.39L115.415 195.422L118.482 211.387C118.482 211.387 118.978 222.635 118.978 224.477C118.978 228.226 122.115 230.303 122.115 230.303L124.417 242.284L146.732 241.347C146.732 241.347 145.954 228.14 141.28 224.809C136.606 221.477 134.457 204.115 134.457 204.115L131.918 196.412L156.671 167.081L156.831 177.334L156.908 182.296C156.908 182.296 153.283 214.573 157.509 220.837C161.734 227.101 157.595 226.364 157.595 226.364L157.796 239.285L184.237 239.473L178.404 202.272C178.404 202.272 175.442 199.934 177.027 197.584C178.612 195.234 175.491 192.356 175.491 192.356L176.891 163.314C176.891 163.314 175.341 158.298 177.164 157.646C178.987 156.994 177.403 152.68 177.403 152.68L177.674 147.059L172.236 129.626L148.42 123.815Z" fill="#2F2E41"/>
<path d="M172.611 110.131L175.236 102.258L177.112 99.6337L177.862 92.1356C177.862 71.8908 173.344 75.262 173.344 75.262L170.736 68.1417L158.734 67.7668L151.045 75.0775L144.669 77.3269L142.173 90.2949L146.732 104.133L147.857 111.631C145.711 115.591 145.893 113.718 147.67 116.692L168.86 122.503C176.361 125.127 176.361 118.379 174.857 116.692C173.353 115.005 172.611 110.131 172.611 110.131Z" fill="#3F3D56"/>
<path d="M163.184 65.2502C169.329 65.2502 174.31 60.2709 174.31 54.1286C174.31 47.9864 169.329 43.0071 163.184 43.0071C157.04 43.0071 152.058 47.9864 152.058 54.1286C152.058 60.2709 157.04 65.2502 163.184 65.2502Z" fill="#FFB6B6"/>
<path d="M178.038 68.9741C178.143 69.1509 178.206 69.3491 178.224 69.5539C178.241 69.7586 178.212 69.9647 178.139 70.1568C178.066 70.3488 177.951 70.5219 177.801 70.6631C177.652 70.8043 177.472 70.91 177.277 70.9724C175.784 71.4672 174.865 72.9106 173.792 74.0653C172.723 75.2163 171.002 76.1723 169.637 75.3887C168.275 74.6089 168.182 72.6182 167.041 71.5385C165.931 70.4887 164.086 70.6162 162.781 71.4147L162.742 71.4387C162.516 71.5856 162.253 71.6632 161.984 71.6619C161.715 71.6607 161.452 71.5807 161.228 71.4319C161.005 71.283 160.829 71.0718 160.724 70.8243C160.619 70.5769 160.589 70.3041 160.637 70.0396C161.094 67.6085 161.551 65.1776 162.008 62.747C160.808 65.6376 159.065 68.2719 156.874 70.5075C156.27 71.2037 155.505 71.7417 154.646 72.0746C153.866 72.322 153.108 71.516 152.351 71.6622C154.233 70.0163 160.564 59.4665 159.432 52.4146C158.1 52.5646 156.769 52.7145 155.437 52.8645C155.293 52.2346 154.985 51.654 154.545 51.1812C154.598 51.7942 154.52 52.4116 154.316 52.992C153.761 53.0557 153.202 53.1157 152.647 53.1794C151.874 53.2657 151.034 53.3406 150.37 52.9357C149.264 52.2609 149.23 50.6638 149.545 49.4041C150.468 45.7413 153.266 42.6784 156.69 41.0738C160.114 39.4729 161.127 43.0383 164.735 41.8986C171.861 39.6492 177.322 43.4957 179.246 50.6338C180.862 56.621 179.688 62.9757 178.038 68.9741Z" fill="#2F2E41"/>
<path d="M208.84 259.579H195.216L195.158 259.473C194.983 259.157 194.815 258.823 194.658 258.479C193.255 255.476 192.662 252.041 192.138 249.011L191.744 246.727C191.696 246.45 191.732 246.165 191.847 245.909C191.962 245.653 192.151 245.437 192.39 245.289C192.628 245.141 192.906 245.067 193.186 245.078C193.467 245.088 193.738 245.182 193.965 245.347C196.036 246.853 198.107 248.357 200.179 249.86C200.963 250.431 201.859 251.091 202.717 251.805C202.8 251.403 202.887 251 202.973 250.603C203.033 250.328 203.173 250.078 203.376 249.883C203.579 249.689 203.836 249.56 204.112 249.512C204.389 249.464 204.674 249.5 204.931 249.615C205.187 249.73 205.403 249.918 205.552 250.157L207.146 252.717C208.308 254.586 209.334 256.428 209.125 258.415C209.126 258.439 209.125 258.464 209.12 258.487C209.078 258.814 209.001 259.135 208.889 259.444L208.84 259.579Z" fill="#F0F0F0"/>
<path d="M222.514 259.874L93.0546 260C92.9254 259.999 92.8017 259.948 92.7105 259.856C92.6194 259.765 92.5682 259.641 92.5682 259.511C92.5682 259.382 92.6194 259.258 92.7105 259.167C92.8017 259.075 92.9254 259.023 93.0546 259.023L222.514 258.897C222.643 258.897 222.767 258.949 222.858 259.041C222.949 259.132 223 259.256 223 259.385C223 259.514 222.949 259.638 222.858 259.73C222.767 259.822 222.643 259.873 222.514 259.874Z" fill="#CACACA"/>
<path d="M104.973 77.7247L90.7334 65.7039C90.2466 65.2921 89.9432 64.7041 89.8896 64.0689C89.8361 63.4338 90.0367 62.8033 90.4476 62.3158L93.0685 59.2135C93.4805 58.727 94.0687 58.4236 94.7042 58.3701C95.3396 58.3165 95.9703 58.5171 96.4579 58.9279L110.698 70.9487C111.185 71.3605 111.488 71.9485 111.542 72.5836C111.595 73.2188 111.395 73.8493 110.984 74.3368L108.363 77.4391C107.951 77.9256 107.363 78.2289 106.727 78.2825C106.092 78.336 105.461 78.1354 104.973 77.7247Z" fill="#3F3D56"/>
<path d="M91.4807 62.5657C91.2593 62.8284 91.1511 63.1682 91.18 63.5105C91.2089 63.8527 91.3724 64.1696 91.6347 64.3915L105.875 76.4123C106.137 76.6336 106.477 76.7417 106.82 76.7129C107.162 76.684 107.479 76.5206 107.701 76.2584L110.322 73.1561C110.543 72.8934 110.652 72.5537 110.623 72.2114C110.594 71.8691 110.43 71.5523 110.168 71.3303L95.9281 59.3095C95.6653 59.0882 95.3254 58.9801 94.983 59.009C94.6406 59.0378 94.3236 59.2013 94.1016 59.4635L91.4807 62.5657Z" fill="white"/>
<path d="M99.8404 67.2389C99.791 67.308 99.7262 67.3647 99.651 67.4044C99.5759 67.4441 99.4925 67.4658 99.4076 67.4677L97.1702 67.5191C97.0983 67.5208 97.0268 67.5082 96.9598 67.4823C96.8927 67.4563 96.8314 67.4174 96.7795 67.3677C96.7275 67.3181 96.6858 67.2587 96.6567 67.193C96.6277 67.1272 96.6119 67.0564 96.6103 66.9845C96.6086 66.9127 96.6211 66.8412 96.6471 66.7742C96.6731 66.7072 96.712 66.646 96.7617 66.594C96.8113 66.542 96.8708 66.5003 96.9366 66.4713C97.0023 66.4423 97.0732 66.4265 97.145 66.4248L98.6088 66.3912L97.1673 62.5891C97.1162 62.4535 97.1211 62.3031 97.1808 62.1711C97.2405 62.039 97.3501 61.936 97.4857 61.8846C97.6212 61.8333 97.7717 61.8378 97.9039 61.8971C98.0362 61.9565 98.1395 62.0658 98.1912 62.2012L99.907 66.7267C99.938 66.8085 99.949 66.8966 99.9389 66.9836C99.9288 67.0705 99.8981 67.1538 99.8491 67.2264L99.8404 67.2389Z" fill="#153964"/>
<path d="M100.127 68.1943C100.667 68.2735 101.183 68.47 101.638 68.7701C102.094 69.0701 102.478 69.4663 102.764 69.9307C103.049 70.3952 103.23 70.9166 103.292 71.4582C103.354 71.9999 103.297 72.5486 103.124 73.0658L113.628 81.1536L107.113 83.3947L98.1371 75.3708C97.2873 75.023 96.5946 74.3757 96.1902 73.5515C95.7859 72.7273 95.6981 71.7834 95.9435 70.8989C96.1888 70.0143 96.7502 69.2504 97.5214 68.7519C98.2925 68.2534 99.2198 68.055 100.127 68.1943Z" fill="#FFB6B6"/>
<path d="M154.811 72.1934L127.919 88.7215C127.919 88.7215 117.076 84.7112 119.195 82.8547C121.314 80.9982 114.568 79.7432 114.568 79.7432L107.116 74.7315L102.792 79.7552C102.792 79.7552 103.58 87.9151 104.92 86.5022C106.261 85.0893 108.265 88.949 108.265 88.949C108.265 88.949 108.857 93.2587 112.674 92.1742C116.49 91.0896 126.731 102.458 126.731 102.458L159.827 90.1189L154.811 72.1934Z" fill="#3F3D56"/>
<path d="M106.268 55.7866C105.956 55.7866 105.649 55.714 105.37 55.5746C105.091 55.4352 104.849 55.2328 104.662 54.9835L99.7363 48.4188C99.5781 48.2079 99.463 47.968 99.3975 47.7126C99.3321 47.4572 99.3176 47.1915 99.3549 46.9305C99.3922 46.6695 99.4806 46.4185 99.6149 46.1917C99.7493 45.9648 99.9271 45.7667 100.138 45.6085C100.564 45.2891 101.1 45.1519 101.627 45.2272C101.888 45.2645 102.139 45.3529 102.366 45.4872C102.593 45.6215 102.791 45.7992 102.949 46.0101L106.172 50.3045L114.448 37.8954C114.743 37.4524 115.203 37.1449 115.725 37.0405C116.247 36.936 116.79 37.0433 117.233 37.3386C117.676 37.634 117.984 38.0932 118.088 38.6152C118.193 39.1373 118.085 39.6795 117.79 40.1225L107.939 54.8926C107.761 55.1598 107.521 55.3803 107.24 55.5357C106.959 55.6912 106.645 55.777 106.324 55.786C106.305 55.7863 106.287 55.7866 106.268 55.7866Z" fill="white"/>
</g>
<defs>
<clipPath id="clip0_396_1446">
<rect width="223" height="260" fill="white"/>
</clipPath>
</defs>
</svg>
