<?xml version="1.0" encoding="iso-8859-1"?>
<!-- Uploaded to: SVG Repo, www.svgrepo.com, Generator: SVG Repo Mixer Tools -->
<svg version="1.1" id="Layer_1" xmlns="http://www.w3.org/2000/svg" xmlns:xlink="http://www.w3.org/1999/xlink" 
	 viewBox="0 0 512 512" xml:space="preserve">
<polygon style="fill:#C7CAC7;" points="298.713,367.195 298.713,420.587 277.357,420.587 234.643,420.587 213.287,420.587 
	213.287,367.195 "/>
<g>
	<polygon style="fill:#858C90;" points="304.052,89.559 304.052,105.577 207.948,105.577 207.948,89.559 256,14.811 	"/>
	<rect x="207.95" y="324.482" style="fill:#858C90;" width="96.105" height="42.713"/>
</g>
<g>
	<polygon style="fill:#E7ECED;" points="207.948,324.482 207.948,367.195 95.825,367.195 207.948,132.272 207.948,292.447 	"/>
	<polygon style="fill:#E7ECED;" points="304.052,292.447 304.052,132.272 416.175,367.195 304.052,367.195 304.052,324.482 	"/>
</g>
<path style="fill:#AFB6BB;" d="M277.357,169.647c0-11.746-9.611-21.357-21.357-21.357c-11.746,0-21.357,9.61-21.357,21.357
	s9.61,21.357,21.357,21.357C267.746,191.003,277.357,181.393,277.357,169.647z M304.052,324.482h-96.105v-192.21v-26.696h96.105
	v26.696V324.482z"/>
<path style="fill:#F4661E;" d="M277.357,420.587c0,0,24.026,34.705-21.357,80.087c-45.383-45.383-21.357-80.087-21.357-80.087
	H277.357z"/>
<path d="M256,191.003c11.746,0,21.357-9.611,21.357-21.357S267.746,148.29,256,148.29c-11.746,0-21.357,9.61-21.357,21.357
	S244.254,191.003,256,191.003z"/>
<path d="M306.722,375.204h122.149l-116.81-244.745V87.207L256,0l-56.061,87.207v43.253L83.129,375.204h122.149v53.392h17.247
	c-1.167,4.082-2.093,9.054-2.227,14.83c-0.617,26.551,15.995,48.866,30.04,62.911l5.664,5.663l5.664-5.663
	c14.044-14.045,30.658-36.361,30.04-62.911c-0.135-5.777-1.061-10.748-2.228-14.83h17.247v-53.392H306.722z M215.956,113.585h80.087
	v202.888h-80.087V113.585z M215.956,332.491h80.087v26.696h-80.087V332.491z M312.061,359.187v-58.731h34.705v-16.017h-34.705
	V167.645l91.417,191.541H312.061z M215.956,91.91L256,29.621l40.044,62.29v4.988v0.668h-80.087v-0.668V91.91z M108.522,359.187
	l91.417-191.541v116.793h-34.705v16.017h34.705v58.731H108.522z M256,488.985c-25.854-29.384-20.173-52.042-16.561-60.39h33.113
	C276.187,437.002,281.819,459.641,256,488.985z M290.705,412.578h-69.409v-37.374h69.409V412.578z"/>
<rect x="247.993" y="212.36" width="16.017" height="21.357"/>
<rect x="247.993" y="244.395" width="16.017" height="21.357"/>
<rect x="247.993" y="276.43" width="16.017" height="21.357"/>
</svg>