<svg width="26" height="25" viewBox="0 0 26 25" fill="none" xmlns="http://www.w3.org/2000/svg">
<path d="M19.8583 7.04583C19.7707 7.03362 19.6831 7.03362 19.5955 7.04583C17.6552 6.98478 16.1155 5.43396 16.1155 3.52902C16.1155 1.58745 17.7303 0 19.7331 0C21.7235 0 23.3508 1.57524 23.3508 3.52902C23.3382 5.43396 21.7986 6.98478 19.8583 7.04583Z" fill="white"/>
<path d="M23.9422 15.5086C22.5402 16.4245 20.575 16.7664 18.7599 16.5344C19.2356 15.5331 19.4859 14.4218 19.4984 13.2496C19.4984 12.0285 19.2231 10.8684 18.6973 9.85487C20.5499 9.61065 22.5152 9.95256 23.9297 10.8684C25.9075 12.1384 25.9075 14.2265 23.9422 15.5086Z" fill="white"/>
<path d="M5.97755 7.04583C6.06517 7.03362 6.1528 7.03362 6.24042 7.04583C8.18066 6.98478 9.72033 5.43396 9.72033 3.52902C9.72033 1.57524 8.10555 0 6.10272 0C4.11241 0 2.49763 1.57524 2.49763 3.52902C2.49763 5.43396 4.03731 6.98478 5.97755 7.04583Z" fill="white"/>
<path d="M6.11641 13.2498C6.11641 14.4343 6.37928 15.5577 6.85495 16.5712C5.08996 16.7544 3.24986 16.3881 1.89796 15.5211C-0.0798362 14.2389 -0.0798362 12.1508 1.89796 10.8686C3.23735 9.98943 5.12752 9.6353 6.90502 9.83069C6.3918 10.8564 6.11641 12.0165 6.11641 13.2498Z" fill="white"/>
<path d="M13.0884 16.9368C12.9882 16.9246 12.8756 16.9246 12.7629 16.9368C10.4597 16.8636 8.61955 15.0197 8.61955 12.7484C8.63207 10.4283 10.5473 8.54779 12.9382 8.54779C15.3165 8.54779 17.2443 10.4283 17.2443 12.7484C17.2317 15.0197 15.4042 16.8636 13.0884 16.9368Z" fill="white"/>
<path d="M9.02012 19.4653C7.12995 20.6986 7.12995 22.7257 9.02012 23.9468C11.1732 25.3511 14.7032 25.3511 16.8562 23.9468C18.7464 22.7135 18.7464 20.6864 16.8562 19.4653C14.7157 18.061 11.1857 18.061 9.02012 19.4653Z" fill="white"/>
</svg>
