<svg width="239" height="259" viewBox="0 0 239 259" fill="none" xmlns="http://www.w3.org/2000/svg">
<g clip-path="url(#clip0_402_2332)">
<path d="M103.418 83.0981C103.239 81.3007 102.656 79.5674 101.713 78.0287C100.771 76.4901 99.4932 75.1861 97.9764 74.2148C96.4595 73.2436 94.7431 72.6304 92.9562 72.4214C91.1693 72.2124 89.3585 72.4131 87.66 73.0083L88.5226 73.0967C84.6545 73.8736 81.2172 76.0786 78.8893 79.2763C77.7522 80.8748 76.9706 82.7001 76.5974 84.6285C76.2243 86.5568 76.2684 88.5432 76.7268 90.4529C77.7043 94.2456 80.5897 97.5361 84.2832 98.7986C86.3369 99.5006 88.5415 99.5864 90.7099 99.6604C92.1174 99.7084 93.5508 99.7514 94.9078 99.3727C96.6533 98.8297 98.1877 97.7556 99.2988 96.299C100.399 94.8476 101.275 93.2375 101.896 91.5232C102.948 88.842 103.703 85.9655 103.418 83.0981Z" fill="#2F2E41"/>
<path d="M134.084 257.84C131.017 246.259 137.827 234.971 145.785 227.157C150.025 222.992 154.748 219.372 159.354 215.633C163.773 212.084 167.981 208.278 171.957 204.235C179.635 196.344 186.332 187.326 190.767 177.189C194.985 167.549 196.979 157.049 195.991 146.531C195.055 136.556 191.494 126.743 184.944 119.09C184.127 118.136 183.269 117.222 182.368 116.347C181.885 115.876 181.144 116.618 181.628 117.09C188.943 124.222 193.2 133.887 194.641 143.941C196.127 154.311 194.596 164.882 190.734 174.576C186.621 184.903 180.08 194.118 172.494 202.16C168.674 206.184 164.61 209.967 160.325 213.489C155.75 217.273 150.995 220.849 146.638 224.894C138.609 232.348 131.392 242.602 132.383 254.144C132.499 255.487 132.73 256.817 133.075 258.119C133.116 258.249 133.205 258.358 133.324 258.424C133.443 258.489 133.583 258.505 133.714 258.469C133.845 258.433 133.956 258.347 134.025 258.229C134.095 258.112 134.115 257.973 134.084 257.84Z" fill="#F0F0F0"/>
<path d="M166.197 191.91C161.365 183.591 157.669 174.657 155.21 165.348C152.742 156.042 151.508 146.45 151.539 136.819C151.574 127.189 152.739 117.318 155.712 108.135C158.533 99.4192 163.589 91.1075 171.615 86.3513C175.709 83.9403 180.382 82.7012 185.127 82.7685C190.139 82.8161 195.081 84.1408 199.597 86.2858C204.02 88.3865 208.064 91.2175 211.8 94.3735C215.362 97.3774 218.686 100.655 221.741 104.176C227.796 111.168 232.742 119.263 235.505 128.139C238.385 137.389 238.889 147.507 236.217 156.868C233.65 165.86 228.028 173.525 221.125 179.681C213.665 186.334 204.829 191.169 195.919 195.558C193.688 196.656 191.446 197.729 189.204 198.802C188.596 199.093 189.127 199.999 189.732 199.709C199.127 195.213 208.616 190.677 216.991 184.399C224.382 178.86 230.969 171.906 234.888 163.436C239.032 154.479 239.881 144.294 238.164 134.63C236.485 125.185 232.274 116.346 226.637 108.647C223.836 104.838 220.724 101.271 217.332 97.9827C213.851 94.5317 210.051 91.4217 205.983 88.695C197.644 83.2217 187.216 79.9165 177.333 82.7358C168.547 85.2423 161.785 92.311 157.762 100.322C155.51 104.806 153.992 109.628 152.912 114.521C151.859 119.343 151.15 124.234 150.792 129.158C149.356 148.805 153.191 168.479 161.898 186.132C162.958 188.273 164.09 190.375 165.294 192.44C165.367 192.555 165.481 192.638 165.613 192.67C165.744 192.702 165.884 192.682 166.001 192.613C166.118 192.544 166.204 192.433 166.241 192.301C166.277 192.17 166.262 192.03 166.197 191.91Z" fill="#F0F0F0"/>
<path d="M159.573 181.757C154.741 173.438 151.045 164.504 148.585 155.196C146.118 145.889 144.884 136.297 144.915 126.667C144.95 117.037 146.114 107.166 149.087 97.9823C151.909 89.2667 156.965 80.9549 164.991 76.1988C169.084 73.7877 173.757 72.5486 178.502 72.6159C183.514 72.6636 188.457 73.9882 192.973 76.1332C197.395 78.2339 201.44 81.065 205.175 84.2209C208.737 87.2248 212.061 90.5023 215.117 94.0238C221.172 101.015 226.118 109.11 228.881 117.986C231.76 127.236 232.265 137.354 229.593 146.716C227.026 155.708 221.404 163.372 214.501 169.529C207.041 176.182 198.205 181.017 189.294 185.405C187.064 186.503 184.822 187.577 182.58 188.65C181.972 188.941 182.502 189.846 183.107 189.557C192.503 185.06 201.992 180.525 210.367 174.247C217.757 168.707 224.345 161.754 228.263 153.284C232.408 144.326 233.257 134.142 231.539 124.478C229.861 115.033 225.649 106.193 220.013 98.4943C217.212 94.6856 214.099 91.1185 210.707 87.8301C207.227 84.3791 203.427 81.2691 199.359 78.5424C191.02 73.0692 180.591 69.7639 170.709 72.5833C161.923 75.0897 155.161 82.1584 151.137 90.1694C148.885 94.6532 147.368 99.4752 146.288 104.368C145.234 109.19 144.526 114.082 144.168 119.005C142.732 138.652 146.567 158.326 155.273 175.979C156.334 178.12 157.466 180.223 158.67 182.287C158.742 182.403 158.857 182.485 158.988 182.517C159.12 182.55 159.259 182.529 159.377 182.46C159.494 182.392 159.58 182.28 159.616 182.149C159.653 182.018 159.637 181.877 159.573 181.757Z" fill="#F0F0F0"/>
<path d="M64.3576 162.075C63.9887 161.553 63.7383 160.955 63.6241 160.325C63.51 159.695 63.5348 159.047 63.6969 158.428C63.859 157.809 64.1543 157.232 64.5622 156.74C64.97 156.247 65.4804 155.851 66.0574 155.578L78.147 117.567L86.5668 121.959L72.0356 157.941C72.4279 158.945 72.44 160.059 72.0694 161.071C71.6989 162.083 70.9715 162.923 70.0251 163.433C69.0787 163.942 67.979 164.085 66.9344 163.835C65.8899 163.585 64.973 162.959 64.3576 162.075Z" fill="#FFB6B6"/>
<path d="M74.2345 122.823C74.1188 122.566 74.0597 122.287 74.0613 122.004C74.0629 121.722 74.1251 121.443 74.2437 121.188L78.3846 112.248C78.7931 110.863 79.7317 109.698 80.9946 109.007C82.2575 108.316 83.7417 108.156 85.1218 108.563C86.5019 108.969 87.6653 109.908 88.357 111.174C89.0487 112.44 89.2122 113.93 88.8118 115.317L87.4278 125.11C87.3883 125.389 87.2892 125.657 87.1374 125.895C86.9856 126.132 86.7846 126.334 86.548 126.487C86.3115 126.639 86.045 126.739 85.7667 126.779C85.4883 126.818 85.2048 126.797 84.9352 126.717L75.462 123.899C75.1924 123.819 74.9431 123.681 74.7313 123.496C74.5195 123.31 74.35 123.081 74.2345 122.823Z" fill="#2F2E41"/>
<path d="M109.161 124.332C106.284 131.897 107.019 139.832 110.562 148.055H85.4601C86.469 142.204 86.0597 136.767 82.3223 132.301L109.161 124.332Z" fill="#FFB6B6"/>
<path d="M79.7821 110.429L87.2112 105.004L99.3679 101.613L109.498 103.648L110.094 109.269C110.818 116.106 111.343 139.757 110 146.5L96 147L86 146L80.1198 131.114C80.1198 131.114 74.0414 125.01 78.769 118.228L79.7821 110.429Z" fill="#2F2E41"/>
<path d="M144.307 72.4809C144.473 73.0993 144.502 73.7468 144.392 74.3776C144.281 75.0084 144.035 75.6073 143.669 76.132C143.303 76.6567 142.827 77.0945 142.275 77.4145C141.722 77.7346 141.107 77.9291 140.471 77.9844L116.016 109.435L109.633 102.386L135.679 73.6876C135.657 72.6095 136.03 71.5608 136.727 70.7403C137.423 69.9198 138.396 69.3845 139.459 69.2357C140.523 69.087 141.604 69.3352 142.498 69.9333C143.391 70.5314 144.035 71.4378 144.307 72.4809Z" fill="#FFB6B6"/>
<path d="M121.5 105.866C121.519 106.147 121.478 106.43 121.38 106.694C121.281 106.958 121.126 107.198 120.927 107.397L113.958 114.342C113.097 115.499 111.814 116.266 110.391 116.475C108.968 116.684 107.52 116.317 106.366 115.456C105.211 114.595 104.444 113.309 104.232 111.881C104.02 110.452 104.381 108.997 105.235 107.836L109.912 99.1307C110.046 98.8822 110.231 98.6656 110.456 98.4956C110.68 98.3255 110.938 98.206 111.213 98.1452C111.487 98.0844 111.772 98.0838 112.046 98.1432C112.321 98.2027 112.58 98.321 112.805 98.49L120.719 104.429C120.945 104.598 121.131 104.814 121.266 105.062C121.4 105.31 121.48 105.584 121.5 105.866Z" fill="#2F2E41"/>
<path d="M79.8152 250.956H83.6617L85.4918 236.057H79.8145L79.8152 250.956Z" fill="#FFB6B6"/>
<path d="M78.5123 249.05L84.5932 248.686V251.302L90.3744 255.311C90.6599 255.509 90.875 255.794 90.9881 256.123C91.1013 256.453 91.1066 256.81 91.0034 257.142C90.9001 257.475 90.6936 257.766 90.4141 257.972C90.1346 258.179 89.7966 258.29 89.4496 258.29H82.2102L80.9624 255.702L80.4752 258.29H77.7456L78.5123 249.05Z" fill="#2F2E41"/>
<path d="M107.009 250.956H110.856L112.686 236.057H107.009L107.009 250.956Z" fill="#FFB6B6"/>
<path d="M105.707 249.05L111.788 248.686V251.302L117.569 255.311C117.854 255.509 118.069 255.794 118.182 256.123C118.296 256.453 118.301 256.81 118.198 257.142C118.094 257.475 117.888 257.766 117.608 257.972C117.329 258.179 116.991 258.29 116.644 258.29H109.405L108.157 255.702L107.67 258.29H104.94L105.707 249.05Z" fill="#2F2E41"/>
<path d="M117.229 167.481V175.078L116.489 184.359C116.489 184.359 116.256 192.463 115.973 198.856C115.803 202.742 115.611 205.994 115.443 206.414C115.238 206.929 115.286 208.333 115.405 209.807C115.545 211.512 115.775 213.311 115.813 213.913C115.886 215.037 115.293 219.865 115.293 219.865C115.293 219.865 114.631 231.971 113.669 232.937C112.707 233.903 113.669 236.651 113.669 236.651C109.157 239.991 103.461 235.909 103.461 235.909C104.719 233.896 102.721 220.155 102.721 220.155C102.721 220.155 102.429 215.464 101.836 214.204C101.243 212.943 101.093 205.07 101.093 205.07V193.409C101.093 193.409 99.5383 191.021 99.3187 189.908C99.0991 188.794 99.3187 184.859 99.3187 184.859L97.694 179.363L96.5818 183.669C96.5818 183.669 93.7021 195.702 93.1825 197.186C92.6631 198.67 93.4755 200.158 93.4755 200.158C93.4755 200.158 94.2181 202.448 93.4755 203.498C93.0141 204.156 92.6609 204.884 92.4296 205.655C92.4296 205.655 92.0494 210.038 91.3837 211.606C90.7177 213.175 90.1285 215.107 90.1285 215.107C90.1285 215.107 90.2853 218.069 89.6195 218.737C88.9535 219.406 88.7339 222.749 88.7339 222.749C88.7339 222.749 88.8803 226.534 87.9912 227.871C87.1022 229.209 87.1022 236.784 87.1022 236.784C85.5604 237.778 83.7836 238.343 81.9534 238.421C80.1231 238.499 78.305 238.088 76.6848 237.229C76.6848 237.229 77.5634 236.403 76.8974 232.552C76.2316 228.701 77.3751 218.216 77.3751 218.216C77.3751 218.216 77.2287 215.555 77.9677 214.365C78.7069 213.175 77.5947 210.874 77.8911 209.835C78.1875 208.795 79.0765 203.148 79.0765 203.148C79.0765 203.148 78.7069 189.26 78.7069 188.518C78.6194 187.197 78.2635 185.908 77.6609 184.73C76.9952 183.543 77.6609 174.927 77.6609 174.927C77.6609 174.927 79.2298 170.474 78.7069 169.508C78.1839 168.542 79.0555 166.833 79.0555 166.833C79.0555 166.833 78.2432 164.827 79.0555 164.456C79.8679 164.085 80.0179 162.601 80.0179 162.601L80.5825 155.396C80.5825 155.396 80.7953 152.126 81.4717 151.979C82.148 151.832 81.8516 150.572 82.5176 149.679C82.8421 149.076 83.0658 148.423 83.18 147.747C83.2741 147.334 83.3613 146.903 83.4345 146.49C83.6437 145.37 83.7728 144.403 83.7728 144.403C88.1378 148.044 111.089 145.492 111.113 145.492C112.571 145.811 114.303 150.89 115.555 155.319C116.668 159.276 117.231 163.369 117.229 167.481Z" fill="#2F2E41"/>
<path d="M100.535 92.0535C102.207 86.5276 99.1025 80.6861 93.5994 79.0063C88.0962 77.3264 82.2789 80.4443 80.606 85.9702C78.9331 91.4962 82.0381 97.3376 87.5412 99.0175C93.0443 100.697 98.8617 97.5794 100.535 92.0535Z" fill="#FFB6B6"/>
<path d="M78.7989 90.8345L82.8316 89.9919L83.5742 84.6179L84.9665 89.5458L86.894 89.1431L87.3271 86.0082L88.1394 88.8829L102.462 85.8904C102.167 84.4671 101.595 83.116 100.78 81.9144C99.9656 80.7128 98.9229 79.6841 97.7121 78.8871C96.5013 78.0901 95.146 77.5404 93.7236 77.2693C92.3012 76.9983 90.8396 77.0112 89.4222 77.3073L87.3464 77.741C84.4838 78.3392 81.9751 80.0547 80.3721 82.5102C78.7691 84.9657 78.2032 87.96 78.7989 90.8345Z" fill="#2F2E41"/>
<path d="M120.056 12.2002L120.029 12.2513C114.77 9.81813 108.779 9.50988 103.3 11.3904C97.82 13.2709 93.2706 17.196 90.5942 22.3526C87.9178 27.5092 87.3194 33.502 88.9229 39.0895C90.5265 44.677 94.2092 49.431 99.208 52.3665L99.1815 52.4175L139.233 73.3782L160.107 33.1608C161.481 30.5198 162.323 27.6328 162.585 24.6648C162.848 21.6967 162.525 18.7059 161.635 15.8632C160.746 13.0206 159.307 10.3818 157.401 8.09787C155.495 5.8139 153.16 3.92948 150.529 2.55232C147.897 1.17517 145.021 0.332294 142.065 0.0718773C139.109 -0.18854 136.131 0.138608 133.301 1.03462C130.471 1.93063 127.844 3.37794 125.572 5.29381C123.299 7.20968 121.425 9.55653 120.056 12.2002Z" fill="#153964"/>
<path d="M155.739 242.98L155.732 242.993C154.403 242.378 152.889 242.3 151.504 242.775C150.119 243.25 148.969 244.242 148.292 245.546C147.616 246.849 147.465 248.364 147.87 249.776C148.275 251.188 149.206 252.39 150.469 253.132L150.463 253.145L160.586 258.442L165.862 248.277C166.209 247.61 166.422 246.88 166.488 246.13C166.555 245.38 166.473 244.624 166.248 243.905C166.023 243.187 165.66 242.52 165.178 241.942C164.696 241.365 164.106 240.889 163.441 240.541C162.776 240.193 162.049 239.98 161.302 239.914C160.554 239.848 159.802 239.931 159.086 240.157C158.371 240.384 157.707 240.75 157.133 241.234C156.558 241.718 156.085 242.311 155.739 242.98Z" fill="#FF6584"/>
<path d="M21.4531 114.093V114.151C15.6691 114.434 10.2152 116.941 6.22144 121.151C2.22764 125.362 -2.68895e-06 130.954 0 136.769C2.68896e-06 142.584 2.22766 148.176 6.22146 152.387C10.2153 156.597 15.6691 159.104 21.4531 159.387V159.445L66.6177 159.445L66.6177 114.093C66.6205 111.114 66.0385 108.163 64.9049 105.409C63.7713 102.655 62.1084 100.153 60.0112 98.0448C57.9139 95.9369 55.4235 94.2646 52.6823 93.1237C49.941 91.9828 47.0028 91.3955 44.0354 91.3955C41.068 91.3955 38.1297 91.9828 35.3885 93.1237C32.6473 94.2646 30.1568 95.9369 28.0596 98.0448C25.9624 100.153 24.2994 102.655 23.1658 105.409C22.0322 108.163 21.4502 111.114 21.4531 114.093Z" fill="#153964"/>
<path d="M231.937 259H6.26278C6.15268 259 6.0471 258.956 5.96925 258.878C5.8914 258.8 5.84766 258.694 5.84766 258.583C5.84766 258.473 5.8914 258.367 5.96925 258.288C6.0471 258.21 6.15268 258.166 6.26278 258.166H231.937C232.047 258.166 232.153 258.21 232.231 258.288C232.309 258.367 232.352 258.473 232.352 258.583C232.352 258.694 232.309 258.8 232.231 258.878C232.153 258.956 232.047 259 231.937 259Z" fill="#CACACA"/>
<path d="M196.007 156.938C200.62 156.909 205.08 155.274 208.627 152.312C212.238 149.263 214.614 144.993 215.309 140.308C215.717 137.659 215.585 134.954 214.922 132.357C214.882 132.227 214.793 132.118 214.673 132.053C214.554 131.988 214.415 131.972 214.284 132.008C214.153 132.044 214.041 132.13 213.972 132.247C213.903 132.365 213.882 132.504 213.914 132.637C215.032 137.045 214.527 141.711 212.493 145.777C210.931 148.816 208.567 151.367 205.66 153.15C202.752 154.933 199.413 155.88 196.007 155.887C195.871 155.892 195.743 155.95 195.648 156.048C195.554 156.145 195.501 156.276 195.501 156.413C195.501 156.549 195.554 156.68 195.648 156.778C195.743 156.876 195.871 156.933 196.007 156.938Z" fill="#F0F0F0"/>
<path d="M115.244 20.5229C112.268 17.6863 107.569 17.6937 104.132 19.6684C100.276 21.8844 98.5271 26.4636 98.6155 30.763C98.715 35.6019 101.071 39.9834 104.113 43.6123C107.356 47.3828 111.129 50.6579 115.314 53.3339C119.487 56.063 124.002 58.2237 128.742 59.7596C129.325 59.9484 129.912 60.1274 130.501 60.2965C130.633 60.3281 130.772 60.307 130.889 60.2377C131.006 60.1684 131.091 60.0563 131.127 59.925C131.163 59.7936 131.147 59.6534 131.082 59.5338C131.017 59.4141 130.909 59.3245 130.779 59.2838C121.677 56.6722 113.403 51.7422 106.758 44.9724C103.595 41.7191 100.784 37.8092 99.919 33.2585C99.1555 29.2396 99.9993 24.5733 103.101 21.7106C106.117 18.9278 111.395 18.3012 114.504 21.2656C114.993 21.7308 115.733 20.9894 115.244 20.5229Z" fill="white"/>
<path d="M20.6799 125.141C16.6601 124.639 12.885 127.478 11.3194 131.064C9.56369 135.085 10.7474 139.721 13.2941 143.119C16.0989 146.862 20.3473 149.044 24.7881 150.202C29.5551 151.446 34.6155 151.781 39.5226 151.552C45.3235 151.282 51.0479 150.113 56.4933 148.088C57.1188 147.855 56.8482 146.839 56.2153 147.075C47.1503 150.455 37.0589 151.521 27.5264 149.737C23.2654 148.939 18.9259 147.417 15.7506 144.339C12.8735 141.55 10.8382 137.325 11.7041 133.246C12.5644 129.192 16.4026 125.657 20.6799 126.191C21.3462 126.274 21.3402 125.223 20.6799 125.141Z" fill="white"/>
<path d="M87.5561 73.6957C88.5284 69.7931 86.6453 65.607 83.7295 62.8481C80.8137 60.0892 77.0089 58.5036 73.2431 57.1307C70.24 56.0359 66.7224 55.0836 64.0045 56.7698C61.8205 58.1247 60.8731 60.7566 59.6246 63.0091C57.2454 67.3013 53.407 70.5902 48.8114 72.2741C44.2157 73.9581 39.17 73.9246 34.5969 72.1798C36.2088 76.8784 41.7609 79.1767 46.6999 78.8576C51.6388 78.5384 56.2005 76.2545 60.8013 74.423C65.4021 72.5916 70.5199 71.1766 75.2486 72.6433C77.2444 73.2623 79.0596 74.3671 81.0357 75.047C83.0118 75.7269 85.3243 75.9294 87.0854 74.8014" fill="#2F2E41"/>
<path d="M156.731 216.632L153.365 210.682C153.292 210.566 153.178 210.484 153.046 210.452C152.914 210.419 152.775 210.44 152.658 210.508C152.541 210.577 152.455 210.689 152.418 210.82C152.381 210.951 152.397 211.092 152.461 211.212L155.828 217.162C155.901 217.277 156.015 217.36 156.147 217.392C156.278 217.425 156.418 217.404 156.535 217.335C156.652 217.267 156.738 217.155 156.775 217.024C156.811 216.892 156.796 216.752 156.731 216.632Z" fill="#F0F0F0"/>
</g>
<defs>
<clipPath id="clip0_402_2332">
<rect width="239" height="259" fill="white"/>
</clipPath>
</defs>
</svg>
