<svg width="31" height="25" viewBox="0 0 31 25" fill="none" xmlns="http://www.w3.org/2000/svg">
<g clip-path="url(#clip0_935_482)">
<path d="M27.9063 3.2955H21.0132L19.9462 0.628094C19.7964 0.253648 19.4338 0.00817871 19.0305 0.00817871H11.7984C11.3951 0.00817871 11.0325 0.253648 10.8828 0.628094L9.81577 3.2955H2.92269C1.65385 3.2955 0.621582 4.32776 0.621582 5.5966V22.6906C0.621582 23.9594 1.65385 24.9917 2.92269 24.9917H27.9063C29.1751 24.9917 30.2074 23.9594 30.2074 22.6906V5.5966C30.2074 4.32776 29.1751 3.2955 27.9063 3.2955ZM12.4661 1.9806H18.3628L18.8887 3.29555H11.9401L12.4661 1.9806ZM28.235 22.6907C28.235 22.8719 28.0875 23.0194 27.9063 23.0194H2.92269C2.74142 23.0194 2.59395 22.8719 2.59395 22.6907V5.5966C2.59395 5.41533 2.74142 5.26786 2.92269 5.26786C3.9683 5.26786 26.779 5.26786 27.9063 5.26786C28.0875 5.26786 28.235 5.41533 28.235 5.5966V22.6907Z" fill="white"/>
<path d="M25.2765 8.09497H5.57852C5.07226 8.09497 4.62807 8.46583 4.5726 8.96908C4.50701 9.56397 4.97103 10.0674 5.55263 10.0674H25.2506C25.7568 10.0674 26.201 9.69653 26.2565 9.19329C26.3221 8.59839 25.858 8.09497 25.2765 8.09497Z" fill="white"/>
<path d="M25.2765 13.1575H5.55262C5.008 13.1575 4.56641 13.599 4.56641 14.1437C4.56641 14.6884 5.00794 15.1299 5.55262 15.1299H25.2765C25.8211 15.1299 26.2627 14.6884 26.2627 14.1437C26.2627 13.599 25.8211 13.1575 25.2765 13.1575Z" fill="white"/>
<path d="M25.2765 18.22H5.57852C5.07226 18.22 4.62807 18.5908 4.5726 19.0941C4.50701 19.689 4.97103 20.1924 5.55263 20.1924H25.2506C25.7568 20.1924 26.201 19.8215 26.2565 19.3183C26.3221 18.7234 25.858 18.22 25.2765 18.22Z" fill="white"/>
</g>
<defs>
<clipPath id="clip0_935_482">
<rect width="29.5858" height="25" fill="white" transform="translate(0.621582)"/>
</clipPath>
</defs>
</svg>
